ISO-10303-21;
HEADER;
FILE_DESCRIPTION (( 'STEP AP214' ),
    '1' );
FILE_NAME ('1x_rotor_endcap.STEP',
    '2025-09-05T22:07:30',
    ( '' ),
    ( '' ),
    'SwSTEP 2.0',
    'SolidWorks 2024',
    '' );
FILE_SCHEMA (( 'AUTOMOTIVE_DESIGN' ));
ENDSEC;

DATA;
#1 = FACE_OUTER_BOUND ( 'NONE', #400, .T. ) ;
#2 = EDGE_LOOP ( 'NONE', ( #11, #74, #232, #309 ) ) ;
#3 = DIRECTION ( 'NONE',  ( 0.000000000000000000, 1.000000000000000000, 0.000000000000000000 ) ) ;
#4 = AXIS2_PLACEMENT_3D ( 'NONE', #73, #7, #249 ) ;
#5 = FACE_OUTER_BOUND ( 'NONE', #411, .T. ) ;
#6 = DIRECTION ( 'NONE',  ( 0.000000000000000000, 1.000000000000000000, 0.000000000000000000 ) ) ;
#7 = DIRECTION ( 'NONE',  ( 0.000000000000000000, 1.000000000000000000, 0.000000000000000000 ) ) ;
#8 = EDGE_CURVE ( 'NONE', #440, #128, #445, .T. ) ;
#9 = UNCERTAINTY_MEASURE_WITH_UNIT (LENGTH_MEASURE( 1.000000000000000082E-05 ), #98, 'distance_accuracy_value', 'NONE');
#10 = STYLED_ITEM ( 'NONE', ( #210 ), #140 ) ;
#11 = ORIENTED_EDGE ( 'NONE', *, *, #437, .F. ) ;
#12 = DIRECTION ( 'NONE',  ( -0.000000000000000000, -1.000000000000000000, -0.000000000000000000 ) ) ;
#13 = DIRECTION ( 'NONE',  ( 0.000000000000000000, 0.000000000000000000, 1.000000000000000000 ) ) ;
#14 = CARTESIAN_POINT ( 'NONE',  ( 0.000000000000000000, 0.000000000000000000, 0.000000000000000000 ) ) ;
#15 = VECTOR ( 'NONE', #450, 1000.000000000000000 ) ;
#16 = ORIENTED_EDGE ( 'NONE', *, *, #158, .T. ) ;
#17 = VECTOR ( 'NONE', #25, 1000.000000000000000 ) ;
#18 = DIRECTION ( 'NONE',  ( 0.000000000000000000, 1.000000000000000000, 0.000000000000000000 ) ) ;
#19 = EDGE_LOOP ( 'NONE', ( #57, #66 ) ) ;
#20 = EDGE_LOOP ( 'NONE', ( #401, #290, #387, #340 ) ) ;
#21 = CARTESIAN_POINT ( 'NONE',  ( 0.000000000000000000, 2.999999999999999556, 0.000000000000000000 ) ) ;
#22 = VERTEX_POINT ( 'NONE', #76 ) ;
#23 = AXIS2_PLACEMENT_3D ( 'NONE', #325, #6, #142 ) ;
#24 = VERTEX_POINT ( 'NONE', #216 ) ;
#25 = DIRECTION ( 'NONE',  ( 0.000000000000000000, 0.7071067811865463515, 0.7071067811865487940 ) ) ;
#26 = EDGE_CURVE ( 'NONE', #93, #369, #134, .T. ) ;
#27 = DIRECTION ( 'NONE',  ( 8.659560562354926695E-17, -0.7071067811865482389, 0.7071067811865469066 ) ) ;
#28 = LINE ( 'NONE', #455, #386 ) ;
#29 = ORIENTED_EDGE ( 'NONE', *, *, #328, .F. ) ;
#30 = DIRECTION ( 'NONE',  ( 0.000000000000000000, 1.000000000000000000, 0.000000000000000000 ) ) ;
#31 = DIRECTION ( 'NONE',  ( 0.000000000000000000, 1.000000000000000000, 0.000000000000000000 ) ) ;
#32 = CIRCLE ( 'NONE', #414, 6.000000000000005329 ) ;
#33 = CIRCLE ( 'NONE', #4, 13.25000000000000178 ) ;
#34 = FACE_BOUND ( 'NONE', #303, .T. ) ;
#35 = EDGE_CURVE ( 'NONE', #306, #202, #157, .T. ) ;
#36 = CARTESIAN_POINT ( 'NONE',  ( 0.000000000000000000, 4.499999999999998224, 5.000000000000000000 ) ) ;
#37 = DIRECTION ( 'NONE',  ( 0.000000000000000000, 0.000000000000000000, 1.000000000000000000 ) ) ;
#38 = LINE ( 'NONE', #180, #227 ) ;
#39 = DIRECTION ( 'NONE',  ( 0.000000000000000000, 0.000000000000000000, -1.000000000000000000 ) ) ;
#40 = PRODUCT_DEFINITION ( 'UNKNOWN', '', #133, #150 ) ;
#41 = DIRECTION ( 'NONE',  ( 0.000000000000000000, 0.000000000000000000, 1.000000000000000000 ) ) ;
#42 = FACE_OUTER_BOUND ( 'NONE', #380, .T. ) ;
#43 = DIRECTION ( 'NONE',  ( 0.000000000000000000, -0.000000000000000000, 1.000000000000000000 ) ) ;
#44 = AXIS2_PLACEMENT_3D ( 'NONE', #323, #219, #41 ) ;
#45 = PLANE ( 'NONE',  #439 ) ;
#46 = ADVANCED_FACE ( 'NONE', ( #34, #457 ), #277, .T. ) ;
#47 = CARTESIAN_POINT ( 'NONE',  ( 0.000000000000000000, 1.500000000000000000, 0.000000000000000000 ) ) ;
#48 = FACE_OUTER_BOUND ( 'NONE', #375, .T. ) ;
#49 = CARTESIAN_POINT ( 'NONE',  ( 3.061616997868383141E-16, 2.999999999999999556, 2.500000000000000000 ) ) ;
#50 = VECTOR ( 'NONE', #284, 999.9999999999998863 ) ;
#51 = EDGE_CURVE ( 'NONE', #369, #391, #417, .T. ) ;
#52 = CARTESIAN_POINT ( 'NONE',  ( 0.000000000000000000, 1.500000000000000000, 0.000000000000000000 ) ) ;
#53 = ORIENTED_EDGE ( 'NONE', *, *, #55, .T. ) ;
#54 = AXIS2_PLACEMENT_3D ( 'NONE', #253, #179, #353 ) ;
#55 = EDGE_CURVE ( 'NONE', #58, #85, #38, .T. ) ;
#56 = EDGE_LOOP ( 'NONE', ( #122, #337, #349, #130 ) ) ;
#57 = ORIENTED_EDGE ( 'NONE', *, *, #300, .T. ) ;
#58 = VERTEX_POINT ( 'NONE', #106 ) ;
#59 = EDGE_CURVE ( 'NONE', #391, #151, #413, .T. ) ;
#60 = SURFACE_STYLE_FILL_AREA ( #458 ) ;
#61 = AXIS2_PLACEMENT_3D ( 'NONE', #287, #182, #388 ) ;
#62 = EDGE_LOOP ( 'NONE', ( #333, #94 ) ) ;
#63 = DIRECTION ( 'NONE',  ( 0.000000000000000000, 0.000000000000000000, 1.000000000000000000 ) ) ;
#64 = CARTESIAN_POINT ( 'NONE',  ( 0.000000000000000000, 1.500000000000000000, 0.000000000000000000 ) ) ;
#65 = EDGE_CURVE ( 'NONE', #128, #24, #282, .T. ) ;
#66 = ORIENTED_EDGE ( 'NONE', *, *, #172, .T. ) ;
#67 = DIRECTION ( 'NONE',  ( 0.000000000000000000, 1.000000000000000000, 0.000000000000000000 ) ) ;
#68 = CARTESIAN_POINT ( 'NONE',  ( 0.000000000000000000, 4.499999999999998224, 0.000000000000000000 ) ) ;
#69 = AXIS2_PLACEMENT_3D ( 'NONE', #319, #31, #139 ) ;
#70 = EDGE_LOOP ( 'NONE', ( #108, #248 ) ) ;
#71 = UNCERTAINTY_MEASURE_WITH_UNIT (LENGTH_MEASURE( 1.000000000000000082E-05 ), #235, 'distance_accuracy_value', 'NONE');
#72 =( NAMED_UNIT ( * ) SI_UNIT ( $, .STERADIAN. ) SOLID_ANGLE_UNIT ( ) );
#73 = CARTESIAN_POINT ( 'NONE',  ( 0.000000000000000000, 1.500000000000000000, 0.000000000000000000 ) ) ;
#74 = ORIENTED_EDGE ( 'NONE', *, *, #135, .F. ) ;
#75 = CARTESIAN_POINT ( 'NONE',  ( 6.123233995736766282E-16, 4.499999999999998224, -5.000000000000000000 ) ) ;
#76 = CARTESIAN_POINT ( 'NONE',  ( 1.530808498934191916E-15, 1.500000000000000000, 12.50000000000000355 ) ) ;
#77 = ADVANCED_FACE ( 'NONE', ( #42 ), #285, .F. ) ;
#78 = CARTESIAN_POINT ( 'NONE',  ( 0.000000000000000000, 4.499999999999998224, 5.000000000000000000 ) ) ;
#79 = CIRCLE ( 'NONE', #453, 5.000000000000000000 ) ;
#80 = DIRECTION ( 'NONE',  ( 0.000000000000000000, 0.000000000000000000, 1.000000000000000000 ) ) ;
#81 = DIRECTION ( 'NONE',  ( -0.000000000000000000, -1.000000000000000000, -0.000000000000000000 ) ) ;
#82 = CYLINDRICAL_SURFACE ( 'NONE', #262, 12.50000000000000355 ) ;
#83 = ADVANCED_FACE ( 'NONE', ( #5 ), #146, .T. ) ;
#84 = DIRECTION ( 'NONE',  ( 0.000000000000000000, 1.000000000000000000, 0.000000000000000000 ) ) ;
#85 = VERTEX_POINT ( 'NONE', #347 ) ;
#86 = CARTESIAN_POINT ( 'NONE',  ( 0.000000000000000000, 0.000000000000000000, 0.000000000000000000 ) ) ;
#87 = ORIENTED_EDGE ( 'NONE', *, *, #355, .F. ) ;
#88 = ADVANCED_FACE ( 'NONE', ( #294 ), #360, .T. ) ;
#89 = ORIENTED_EDGE ( 'NONE', *, *, #324, .F. ) ;
#90 = PRODUCT ( '1x_rotor_endcap', '1x_rotor_endcap', '', ( #441 ) ) ;
#91 = ORIENTED_EDGE ( 'NONE', *, *, #437, .T. ) ;
#92 = ADVANCED_FACE ( 'NONE', ( #398 ), #111, .T. ) ;
#93 = VERTEX_POINT ( 'NONE', #362 ) ;
#94 = ORIENTED_EDGE ( 'NONE', *, *, #127, .T. ) ;
#95 = AXIS2_PLACEMENT_3D ( 'NONE', #412, #67, #214 ) ;
#96 = CARTESIAN_POINT ( 'NONE',  ( 6.123233995736766282E-16, 2.999999999999999556, -5.000000000000000000 ) ) ;
#97 = CARTESIAN_POINT ( 'NONE',  ( 0.000000000000000000, 5.500000000000000000, 0.000000000000000000 ) ) ;
#98 =( LENGTH_UNIT ( ) NAMED_UNIT ( * ) SI_UNIT ( .MILLI., .METRE. ) );
#99 = DIRECTION ( 'NONE',  ( -0.000000000000000000, -1.000000000000000000, -0.000000000000000000 ) ) ;
#100 = CARTESIAN_POINT ( 'NONE',  ( 0.000000000000000000, 1.500000000000000000, 0.000000000000000000 ) ) ;
#101 = DIRECTION ( 'NONE',  ( 0.000000000000000000, 1.000000000000000000, 0.000000000000000000 ) ) ;
#102 = CARTESIAN_POINT ( 'NONE',  ( 0.000000000000000000, 2.999999999999999556, 0.000000000000000000 ) ) ;
#103 = CARTESIAN_POINT ( 'NONE',  ( 0.000000000000000000, 2.999999999999999556, 0.000000000000000000 ) ) ;
#104 = VECTOR ( 'NONE', #99, 1000.000000000000000 ) ;
#105 = AXIS2_PLACEMENT_3D ( 'NONE', #178, #30, #280 ) ;
#106 = CARTESIAN_POINT ( 'NONE',  ( 1.561424668912874519E-15, 5.500000000000000000, 12.24999999999998579 ) ) ;
#107 = FACE_OUTER_BOUND ( 'NONE', #206, .T. ) ;
#108 = ORIENTED_EDGE ( 'NONE', *, *, #135, .T. ) ;
#109 = CYLINDRICAL_SURFACE ( 'NONE', #424, 5.000000000000000000 ) ;
#110 = AXIS2_PLACEMENT_3D ( 'NONE', #120, #112, #436 ) ;
#111 = CYLINDRICAL_SURFACE ( 'NONE', #397, 13.25000000000000178 ) ;
#112 = DIRECTION ( 'NONE',  ( 0.000000000000000000, 1.000000000000000000, 0.000000000000000000 ) ) ;
#113 = EDGE_CURVE ( 'NONE', #440, #318, #432, .T. ) ;
#114 = CARTESIAN_POINT ( 'NONE',  ( 3.061616997868383141E-16, 1.500000000000000000, 2.500000000000000000 ) ) ;
#115 = ORIENTED_EDGE ( 'NONE', *, *, #35, .F. ) ;
#116 = CYLINDRICAL_SURFACE ( 'NONE', #205, 2.500000000000000000 ) ;
#117 = PRODUCT_RELATED_PRODUCT_CATEGORY ( 'part', '', ( #90 ) ) ;
#118 = CIRCLE ( 'NONE', #110, 12.24999999999998579 ) ;
#119 = ORIENTED_EDGE ( 'NONE', *, *, #181, .T. ) ;
#120 = CARTESIAN_POINT ( 'NONE',  ( 0.000000000000000000, 5.500000000000000000, 0.000000000000000000 ) ) ;
#121 = ORIENTED_EDGE ( 'NONE', *, *, #65, .T. ) ;
#122 = ORIENTED_EDGE ( 'NONE', *, *, #172, .F. ) ;
#123 = ORIENTED_EDGE ( 'NONE', *, *, #158, .F. ) ;
#124 = CIRCLE ( 'NONE', #189, 12.50000000000000355 ) ;
#125 = DIRECTION ( 'NONE',  ( 0.000000000000000000, 1.000000000000000000, 0.000000000000000000 ) ) ;
#126 = SHAPE_DEFINITION_REPRESENTATION ( #239, #330 ) ;
#127 = EDGE_CURVE ( 'NONE', #202, #306, #32, .T. ) ;
#128 = VERTEX_POINT ( 'NONE', #169 ) ;
#129 = DIRECTION ( 'NONE',  ( -0.000000000000000000, -1.000000000000000000, -0.000000000000000000 ) ) ;
#130 = ORIENTED_EDGE ( 'NONE', *, *, #208, .F. ) ;
#131 = DIRECTION ( 'NONE',  ( 0.000000000000000000, 1.000000000000000000, 0.000000000000000000 ) ) ;
#132 = CIRCLE ( 'NONE', #228, 2.500000000000000000 ) ;
#133 = PRODUCT_DEFINITION_FORMATION_WITH_SPECIFIED_SOURCE ( 'ANY', '', #90, .NOT_KNOWN. ) ;
#134 = LINE ( 'NONE', #345, #50 ) ;
#135 = EDGE_CURVE ( 'NONE', #406, #173, #153, .T. ) ;
#136 = CYLINDRICAL_SURFACE ( 'NONE', #276, 2.500000000000000000 ) ;
#137 = CARTESIAN_POINT ( 'NONE',  ( 0.000000000000000000, 5.500000000000000000, 0.000000000000000000 ) ) ;
#138 = CARTESIAN_POINT ( 'NONE',  ( 0.000000000000000000, 5.500000000000000000, -13.25000000000000178 ) ) ;
#139 = DIRECTION ( 'NONE',  ( 0.000000000000000000, 0.000000000000000000, 1.000000000000000000 ) ) ;
#140 = MANIFOLD_SOLID_BREP ( 'Chamfer2', #423 ) ;
#141 = DIRECTION ( 'NONE',  ( 0.000000000000000000, 0.000000000000000000, 1.000000000000000000 ) ) ;
#142 = DIRECTION ( 'NONE',  ( 0.000000000000000000, 0.000000000000000000, 1.000000000000000000 ) ) ;
#143 = VECTOR ( 'NONE', #396, 1000.000000000000000 ) ;
#144 = MECHANICAL_DESIGN_GEOMETRIC_PRESENTATION_REPRESENTATION (  '', ( #10 ), #404 ) ;
#145 = EDGE_CURVE ( 'NONE', #234, #306, #218, .T. ) ;
#146 = CYLINDRICAL_SURFACE ( 'NONE', #201, 13.25000000000000178 ) ;
#147 = DIRECTION ( 'NONE',  ( 0.000000000000000000, 0.000000000000000000, 1.000000000000000000 ) ) ;
#148 = APPLICATION_CONTEXT ( 'automotive_design' ) ;
#149 = LINE ( 'NONE', #211, #312 ) ;
#150 = PRODUCT_DEFINITION_CONTEXT ( 'detailed design', #148, 'design' ) ;
#151 = VERTEX_POINT ( 'NONE', #352 ) ;
#152 = CARTESIAN_POINT ( 'NONE',  ( 6.123233995736766282E-16, 2.999999999999999556, -5.000000000000000000 ) ) ;
#153 = CIRCLE ( 'NONE', #335, 5.000000000000000000 ) ;
#154 = DIRECTION ( 'NONE',  ( 0.000000000000000000, 0.000000000000000000, -1.000000000000000000 ) ) ;
#155 = ORIENTED_EDGE ( 'NONE', *, *, #145, .T. ) ;
#156 = FACE_OUTER_BOUND ( 'NONE', #266, .T. ) ;
#157 = CIRCLE ( 'NONE', #174, 6.000000000000005329 ) ;
#158 = EDGE_CURVE ( 'NONE', #316, #234, #245, .T. ) ;
#159 = PRESENTATION_LAYER_ASSIGNMENT (  '', '', ( #10 ) ) ;
#160 = ORIENTED_EDGE ( 'NONE', *, *, #237, .T. ) ;
#161 = DIRECTION ( 'NONE',  ( 0.000000000000000000, -0.000000000000000000, 1.000000000000000000 ) ) ;
#162 = ORIENTED_EDGE ( 'NONE', *, *, #8, .T. ) ;
#163 = DIRECTION ( 'NONE',  ( 0.000000000000000000, 0.000000000000000000, 1.000000000000000000 ) ) ;
#164 = DIRECTION ( 'NONE',  ( 0.000000000000000000, 0.000000000000000000, 1.000000000000000000 ) ) ;
#165 = ORIENTED_EDGE ( 'NONE', *, *, #55, .F. ) ;
#166 = ADVANCED_FACE ( 'NONE', ( #418 ), #136, .F. ) ;
#167 = ORIENTED_EDGE ( 'NONE', *, *, #225, .F. ) ;
#168 = AXIS2_PLACEMENT_3D ( 'NONE', #421, #359, #147 ) ;
#169 = CARTESIAN_POINT ( 'NONE',  ( 0.000000000000000000, 2.999999999999999556, -2.500000000000000000 ) ) ;
#170 = VERTEX_POINT ( 'NONE', #384 ) ;
#171 = DIRECTION ( 'NONE',  ( 0.000000000000000000, 1.000000000000000000, 0.000000000000000000 ) ) ;
#172 = EDGE_CURVE ( 'NONE', #22, #192, #231, .T. ) ;
#173 = VERTEX_POINT ( 'NONE', #96 ) ;
#174 = AXIS2_PLACEMENT_3D ( 'NONE', #310, #351, #141 ) ;
#175 = CIRCLE ( 'NONE', #44, 12.50000000000000355 ) ;
#176 = FACE_OUTER_BOUND ( 'NONE', #236, .T. ) ;
#177 = ORIENTED_EDGE ( 'NONE', *, *, #59, .F. ) ;
#178 = CARTESIAN_POINT ( 'NONE',  ( 0.000000000000000000, 4.499999999999998224, 0.000000000000000000 ) ) ;
#179 = DIRECTION ( 'NONE',  ( 0.000000000000000000, 1.000000000000000000, 0.000000000000000000 ) ) ;
#180 = CARTESIAN_POINT ( 'NONE',  ( 1.500192328955506157E-15, 5.500000000000000000, 12.24999999999998579 ) ) ;
#181 = EDGE_CURVE ( 'NONE', #128, #440, #213, .T. ) ;
#182 = DIRECTION ( 'NONE',  ( 0.000000000000000000, -1.000000000000000000, 0.000000000000000000 ) ) ;
#183 = CARTESIAN_POINT ( 'NONE',  ( 0.000000000000000000, 4.499999999999998224, 0.000000000000000000 ) ) ;
#184 = FACE_OUTER_BOUND ( 'NONE', #271, .T. ) ;
#185 = VECTOR ( 'NONE', #390, 1000.000000000000000 ) ;
#186 = DIRECTION ( 'NONE',  ( -0.000000000000000000, 1.000000000000000000, -0.000000000000000000 ) ) ;
#187 = LINE ( 'NONE', #152, #255 ) ;
#188 = DIRECTION ( 'NONE',  ( 0.000000000000000000, 0.000000000000000000, 1.000000000000000000 ) ) ;
#189 = AXIS2_PLACEMENT_3D ( 'NONE', #350, #190, #188 ) ;
#190 = DIRECTION ( 'NONE',  ( 0.000000000000000000, 1.000000000000000000, 0.000000000000000000 ) ) ;
#191 = CARTESIAN_POINT ( 'NONE',  ( 0.000000000000000000, 4.499999999999983125, -13.25000000000000178 ) ) ;
#192 = VERTEX_POINT ( 'NONE', #314 ) ;
#193 = DIRECTION ( 'NONE',  ( 0.000000000000000000, -1.000000000000000000, 0.000000000000000000 ) ) ;
#194 = VECTOR ( 'NONE', #278, 1000.000000000000000 ) ;
#195 = AXIS2_PLACEMENT_3D ( 'NONE', #52, #18, #161 ) ;
#196 = ORIENTED_EDGE ( 'NONE', *, *, #341, .F. ) ;
#197 = EDGE_CURVE ( 'NONE', #85, #151, #207, .T. ) ;
#198 = EDGE_LOOP ( 'NONE', ( #383, #295, #297, #160 ) ) ;
#199 = ORIENTED_EDGE ( 'NONE', *, *, #65, .F. ) ;
#200 = DIRECTION ( 'NONE',  ( 0.000000000000000000, 0.000000000000000000, 1.000000000000000000 ) ) ;
#201 = AXIS2_PLACEMENT_3D ( 'NONE', #97, #240, #209 ) ;
#202 = VERTEX_POINT ( 'NONE', #346 ) ;
#203 = CIRCLE ( 'NONE', #69, 12.50000000000000355 ) ;
#204 = DIRECTION ( 'NONE',  ( 0.000000000000000000, 0.000000000000000000, -1.000000000000000000 ) ) ;
#205 = AXIS2_PLACEMENT_3D ( 'NONE', #257, #268, #204 ) ;
#206 = EDGE_LOOP ( 'NONE', ( #230, #53, #454, #409 ) ) ;
#207 = LINE ( 'NONE', #381, #194 ) ;
#208 = EDGE_CURVE ( 'NONE', #192, #338, #307, .T. ) ;
#209 = DIRECTION ( 'NONE',  ( 0.000000000000000000, 0.000000000000000000, -1.000000000000000000 ) ) ;
#210 = PRESENTATION_STYLE_ASSIGNMENT (( #272 ) ) ;
#211 = CARTESIAN_POINT ( 'NONE',  ( 0.000000000000000000, 2.999999999999999556, 5.000000000000000000 ) ) ;
#212 = ORIENTED_EDGE ( 'NONE', *, *, #59, .T. ) ;
#213 = CIRCLE ( 'NONE', #364, 2.500000000000000000 ) ;
#214 = DIRECTION ( 'NONE',  ( 0.000000000000000000, 0.000000000000000000, 1.000000000000000000 ) ) ;
#215 = DIRECTION ( 'NONE',  ( 0.000000000000000000, 1.000000000000000000, 0.000000000000000000 ) ) ;
#216 = CARTESIAN_POINT ( 'NONE',  ( 0.000000000000000000, 0.000000000000000000, -2.500000000000000000 ) ) ;
#217 = EDGE_CURVE ( 'NONE', #22, #170, #28, .T. ) ;
#218 = LINE ( 'NONE', #36, #17 ) ;
#219 = DIRECTION ( 'NONE',  ( 0.000000000000000000, 1.000000000000000000, 0.000000000000000000 ) ) ;
#220 = CARTESIAN_POINT ( 'NONE',  ( 0.000000000000000000, 1.500000000000000000, -2.500000000000000000 ) ) ;
#221 = CARTESIAN_POINT ( 'NONE',  ( 0.000000000000000000, 0.000000000000000000, 0.000000000000000000 ) ) ;
#222 = AXIS2_PLACEMENT_3D ( 'NONE', #64, #416, #241 ) ;
#223 = DIRECTION ( 'NONE',  ( 0.000000000000000000, -1.000000000000000000, 0.000000000000000000 ) ) ;
#224 = COLOUR_RGB ( '',0.4980392156862745168, 0.4980392156862745168, 0.4980392156862745168 ) ;
#225 = EDGE_CURVE ( 'NONE', #318, #24, #132, .T. ) ;
#226 = FACE_OUTER_BOUND ( 'NONE', #331, .T. ) ;
#227 = VECTOR ( 'NONE', #27, 999.9999999999998863 ) ;
#228 = AXIS2_PLACEMENT_3D ( 'NONE', #86, #298, #163 ) ;
#229 = ADVANCED_FACE ( 'NONE', ( #107 ), #393, .T. ) ;
#230 = ORIENTED_EDGE ( 'NONE', *, *, #382, .F. ) ;
#231 = CIRCLE ( 'NONE', #95, 12.50000000000000355 ) ;
#232 = ORIENTED_EDGE ( 'NONE', *, *, #341, .T. ) ;
#233 = ORIENTED_EDGE ( 'NONE', *, *, #336, .F. ) ;
#234 = VERTEX_POINT ( 'NONE', #78 ) ;
#235 =( LENGTH_UNIT ( ) NAMED_UNIT ( * ) SI_UNIT ( .MILLI., .METRE. ) );
#236 = EDGE_LOOP ( 'NONE', ( #263, #402 ) ) ;
#237 = EDGE_CURVE ( 'NONE', #338, #170, #203, .T. ) ;
#238 = CARTESIAN_POINT ( 'NONE',  ( 0.000000000000000000, 2.999999999999999556, 0.000000000000000000 ) ) ;
#239 = PRODUCT_DEFINITION_SHAPE ( 'NONE', 'NONE',  #40 ) ;
#240 = DIRECTION ( 'NONE',  ( -0.000000000000000000, -1.000000000000000000, -0.000000000000000000 ) ) ;
#241 = DIRECTION ( 'NONE',  ( 0.000000000000000000, 0.000000000000000000, 1.000000000000000000 ) ) ;
#242 = CARTESIAN_POINT ( 'NONE',  ( 0.000000000000000000, 4.499999999999983125, 0.000000000000000000 ) ) ;
#243 = EDGE_CURVE ( 'NONE', #369, #85, #446, .T. ) ;
#244 = ORIENTED_EDGE ( 'NONE', *, *, #399, .F. ) ;
#245 = CIRCLE ( 'NONE', #105, 5.000000000000000000 ) ;
#246 = FILL_AREA_STYLE_COLOUR ( '', #224 ) ;
#247 = DIRECTION ( 'NONE',  ( 0.000000000000000000, 0.000000000000000000, 1.000000000000000000 ) ) ;
#248 = ORIENTED_EDGE ( 'NONE', *, *, #399, .T. ) ;
#249 = DIRECTION ( 'NONE',  ( 0.000000000000000000, 0.000000000000000000, 1.000000000000000000 ) ) ;
#250 = ORIENTED_EDGE ( 'NONE', *, *, #113, .F. ) ;
#251 = CARTESIAN_POINT ( 'NONE',  ( 0.000000000000000000, 0.000000000000000000, -12.50000000000000355 ) ) ;
#252 = ADVANCED_FACE ( 'NONE', ( #356 ), #429, .F. ) ;
#253 = CARTESIAN_POINT ( 'NONE',  ( 0.000000000000000000, 5.500000000000000000, 0.000000000000000000 ) ) ;
#254 = CIRCLE ( 'NONE', #54, 12.24999999999998579 ) ;
#255 = VECTOR ( 'NONE', #395, 1000.000000000000000 ) ;
#256 = CARTESIAN_POINT ( 'NONE',  ( 0.000000000000000000, 5.500000000000000000, 0.000000000000000000 ) ) ;
#257 = CARTESIAN_POINT ( 'NONE',  ( 0.000000000000000000, 1.500000000000000000, 0.000000000000000000 ) ) ;
#258 = EDGE_CURVE ( 'NONE', #234, #316, #79, .T. ) ;
#259 = DIRECTION ( 'NONE',  ( -0.000000000000000000, -1.000000000000000000, -0.000000000000000000 ) ) ;
#260 = CARTESIAN_POINT ( 'NONE',  ( 0.000000000000000000, 2.999999999999999556, 0.000000000000000000 ) ) ;
#261 = AXIS2_PLACEMENT_3D ( 'NONE', #431, #193, #367 ) ;
#262 = AXIS2_PLACEMENT_3D ( 'NONE', #363, #12, #154 ) ;
#263 = ORIENTED_EDGE ( 'NONE', *, *, #308, .T. ) ;
#264 = FACE_BOUND ( 'NONE', #19, .T. ) ;
#265 = DIRECTION ( 'NONE',  ( -0.000000000000000000, -1.000000000000000000, -0.000000000000000000 ) ) ;
#266 = EDGE_LOOP ( 'NONE', ( #165, #449, #444, #29 ) ) ;
#267 = ORIENTED_EDGE ( 'NONE', *, *, #127, .F. ) ;
#268 = DIRECTION ( 'NONE',  ( -0.000000000000000000, -1.000000000000000000, -0.000000000000000000 ) ) ;
#269 = VECTOR ( 'NONE', #129, 1000.000000000000000 ) ;
#270 = ORIENTED_EDGE ( 'NONE', *, *, #51, .T. ) ;
#271 = EDGE_LOOP ( 'NONE', ( #244, #91, #16, #196 ) ) ;
#272 = SURFACE_STYLE_USAGE ( .BOTH. , #311 ) ;
#273 = ADVANCED_FACE ( 'NONE', ( #1, #419 ), #45, .F. ) ;
#274 = ORIENTED_EDGE ( 'NONE', *, *, #113, .T. ) ;
#275 = DIRECTION ( 'NONE',  ( -0.000000000000000000, -1.000000000000000000, -0.000000000000000000 ) ) ;
#276 = AXIS2_PLACEMENT_3D ( 'NONE', #100, #275, #39 ) ;
#277 = PLANE ( 'NONE',  #452 ) ;
#278 = DIRECTION ( 'NONE',  ( -0.000000000000000000, -1.000000000000000000, -0.000000000000000000 ) ) ;
#279 = CARTESIAN_POINT ( 'NONE',  ( 0.000000000000000000, 2.999999999999999556, 0.000000000000000000 ) ) ;
#280 = DIRECTION ( 'NONE',  ( 0.000000000000000000, 0.000000000000000000, 1.000000000000000000 ) ) ;
#281 = DIRECTION ( 'NONE',  ( 0.000000000000000000, -1.000000000000000000, 0.000000000000000000 ) ) ;
#282 = LINE ( 'NONE', #220, #15 ) ;
#283 = DIRECTION ( 'NONE',  ( 0.000000000000000000, 1.000000000000000000, 0.000000000000000000 ) ) ;
#284 = DIRECTION ( 'NONE',  ( 0.000000000000000000, -0.7071067811865482389, -0.7071067811865469066 ) ) ;
#285 = CONICAL_SURFACE ( 'NONE', #342, 5.000000000000000000, 0.7853981633974500554 ) ;
#286 = AXIS2_PLACEMENT_3D ( 'NONE', #137, #101, #385 ) ;
#287 = CARTESIAN_POINT ( 'NONE',  ( 0.000000000000000000, 5.500000000000000000, 0.000000000000000000 ) ) ;
#288 = EDGE_LOOP ( 'NONE', ( #301, #435 ) ) ;
#289 = DIRECTION ( 'NONE',  ( 0.000000000000000000, 0.000000000000000000, 1.000000000000000000 ) ) ;
#290 = ORIENTED_EDGE ( 'NONE', *, *, #197, .T. ) ;
#291 = DIRECTION ( 'NONE',  ( 0.000000000000000000, 0.000000000000000000, 1.000000000000000000 ) ) ;
#292 = FACE_OUTER_BOUND ( 'NONE', #56, .T. ) ;
#293 = ADVANCED_FACE ( 'NONE', ( #184 ), #109, .F. ) ;
#294 = FACE_OUTER_BOUND ( 'NONE', #198, .T. ) ;
#295 = ORIENTED_EDGE ( 'NONE', *, *, #300, .F. ) ;
#296 = CIRCLE ( 'NONE', #358, 13.25000000000000178 ) ;
#297 = ORIENTED_EDGE ( 'NONE', *, *, #208, .T. ) ;
#298 = DIRECTION ( 'NONE',  ( 0.000000000000000000, 1.000000000000000000, 0.000000000000000000 ) ) ;
#299 = CARTESIAN_POINT ( 'NONE',  ( 0.000000000000000000, 1.500000000000000000, -13.25000000000000178 ) ) ;
#300 = EDGE_CURVE ( 'NONE', #192, #22, #175, .T. ) ;
#301 = ORIENTED_EDGE ( 'NONE', *, *, #324, .T. ) ;
#302 = DIRECTION ( 'NONE',  ( 1.000000000000000000, 0.000000000000000000, 0.000000000000000000 ) ) ;
#303 = EDGE_LOOP ( 'NONE', ( #433, #344 ) ) ;
#304 = APPLICATION_PROTOCOL_DEFINITION ( 'draft international standard', 'automotive_design', 1998, #148 ) ;
#305 = CONICAL_SURFACE ( 'NONE', #415, 5.000000000000000000, 0.7853981633974500554 ) ;
#306 = VERTEX_POINT ( 'NONE', #315 ) ;
#307 = LINE ( 'NONE', #448, #269 ) ;
#308 = EDGE_CURVE ( 'NONE', #93, #58, #254, .T. ) ;
#309 = ORIENTED_EDGE ( 'NONE', *, *, #258, .T. ) ;
#310 = CARTESIAN_POINT ( 'NONE',  ( 0.000000000000000000, 5.500000000000000000, 0.000000000000000000 ) ) ;
#311 = SURFACE_SIDE_STYLE ('',( #60 ) ) ;
#312 = VECTOR ( 'NONE', #348, 1000.000000000000000 ) ;
#313 = DIRECTION ( 'NONE',  ( 0.000000000000000000, 0.000000000000000000, 1.000000000000000000 ) ) ;
#314 = CARTESIAN_POINT ( 'NONE',  ( 0.000000000000000000, 1.500000000000000000, -12.50000000000000355 ) ) ;
#315 = CARTESIAN_POINT ( 'NONE',  ( 0.000000000000000000, 5.500000000000000000, 6.000000000000005329 ) ) ;
#316 = VERTEX_POINT ( 'NONE', #428 ) ;
#317 = LINE ( 'NONE', #75, #185 ) ;
#318 = VERTEX_POINT ( 'NONE', #394 ) ;
#319 = CARTESIAN_POINT ( 'NONE',  ( 0.000000000000000000, 0.000000000000000000, 0.000000000000000000 ) ) ;
#320 = DIRECTION ( 'NONE',  ( 0.000000000000000000, 0.000000000000000000, 1.000000000000000000 ) ) ;
#321 = APPLICATION_CONTEXT ( 'automotive_design' ) ;
#322 = CIRCLE ( 'NONE', #23, 2.500000000000000000 ) ;
#323 = CARTESIAN_POINT ( 'NONE',  ( 0.000000000000000000, 1.500000000000000000, 0.000000000000000000 ) ) ;
#324 = EDGE_CURVE ( 'NONE', #24, #318, #322, .T. ) ;
#325 = CARTESIAN_POINT ( 'NONE',  ( 0.000000000000000000, 0.000000000000000000, 0.000000000000000000 ) ) ;
#326 = DIRECTION ( 'NONE',  ( 0.000000000000000000, 1.000000000000000000, 0.000000000000000000 ) ) ;
#327 = DIRECTION ( 'NONE',  ( 0.000000000000000000, 0.000000000000000000, -1.000000000000000000 ) ) ;
#328 = EDGE_CURVE ( 'NONE', #85, #369, #296, .T. ) ;
#329 =( GEOMETRIC_REPRESENTATION_CONTEXT ( 3 ) GLOBAL_UNCERTAINTY_ASSIGNED_CONTEXT ( ( #71 ) ) GLOBAL_UNIT_ASSIGNED_CONTEXT ( ( #235, #451, #407 ) ) REPRESENTATION_CONTEXT ( 'NONE', 'WORKASPACE' ) );
#330 = ADVANCED_BREP_SHAPE_REPRESENTATION ( '1x_rotor_endcap', ( #140, #378 ), #329 ) ;
#331 = EDGE_LOOP ( 'NONE', ( #177, #233 ) ) ;
#332 = CARTESIAN_POINT ( 'NONE',  ( 0.000000000000000000, 4.499999999999998224, 0.000000000000000000 ) ) ;
#333 = ORIENTED_EDGE ( 'NONE', *, *, #35, .T. ) ;
#334 = PLANE ( 'NONE',  #195 ) ;
#335 = AXIS2_PLACEMENT_3D ( 'NONE', #21, #125, #408 ) ;
#336 = EDGE_CURVE ( 'NONE', #151, #391, #33, .T. ) ;
#337 = ORIENTED_EDGE ( 'NONE', *, *, #217, .T. ) ;
#338 = VERTEX_POINT ( 'NONE', #251 ) ;
#339 = APPLICATION_PROTOCOL_DEFINITION ( 'draft international standard', 'automotive_design', 1998, #321 ) ;
#340 = ORIENTED_EDGE ( 'NONE', *, *, #51, .F. ) ;
#341 = EDGE_CURVE ( 'NONE', #406, #234, #149, .T. ) ;
#342 = AXIS2_PLACEMENT_3D ( 'NONE', #183, #171, #320 ) ;
#343 = CONICAL_SURFACE ( 'NONE', #261, 12.24999999999998579, 0.7853981633974473908 ) ;
#344 = ORIENTED_EDGE ( 'NONE', *, *, #8, .F. ) ;
#345 = CARTESIAN_POINT ( 'NONE',  ( 0.000000000000000000, 5.500000000000000000, -12.24999999999998579 ) ) ;
#346 = CARTESIAN_POINT ( 'NONE',  ( 7.347880794884125653E-16, 5.500000000000000000, -6.000000000000005329 ) ) ;
#347 = CARTESIAN_POINT ( 'NONE',  ( 1.622657008870243277E-15, 4.499999999999983125, 13.25000000000000178 ) ) ;
#348 = DIRECTION ( 'NONE',  ( -0.000000000000000000, 1.000000000000000000, -0.000000000000000000 ) ) ;
#349 = ORIENTED_EDGE ( 'NONE', *, *, #368, .T. ) ;
#350 = CARTESIAN_POINT ( 'NONE',  ( 0.000000000000000000, 0.000000000000000000, 0.000000000000000000 ) ) ;
#351 = DIRECTION ( 'NONE',  ( -0.000000000000000000, -1.000000000000000000, -0.000000000000000000 ) ) ;
#352 = CARTESIAN_POINT ( 'NONE',  ( 1.622657008870243277E-15, 1.500000000000000000, 13.25000000000000178 ) ) ;
#353 = DIRECTION ( 'NONE',  ( 0.000000000000000000, 0.000000000000000000, 1.000000000000000000 ) ) ;
#354 = DIRECTION ( 'NONE',  ( 0.000000000000000000, 1.000000000000000000, 0.000000000000000000 ) ) ;
#355 = EDGE_CURVE ( 'NONE', #316, #202, #317, .T. ) ;
#356 = FACE_OUTER_BOUND ( 'NONE', #2, .T. ) ;
#357 = AXIS2_PLACEMENT_3D ( 'NONE', #102, #354, #313 ) ;
#358 = AXIS2_PLACEMENT_3D ( 'NONE', #242, #281, #247 ) ;
#359 = DIRECTION ( 'NONE',  ( -0.000000000000000000, 1.000000000000000000, -0.000000000000000000 ) ) ;
#360 = CYLINDRICAL_SURFACE ( 'NONE', #370, 12.50000000000000355 ) ;
#361 = ADVANCED_FACE ( 'NONE', ( #392, #176 ), #456, .T. ) ;
#362 = CARTESIAN_POINT ( 'NONE',  ( 0.000000000000000000, 5.500000000000000000, -12.24999999999998579 ) ) ;
#363 = CARTESIAN_POINT ( 'NONE',  ( 0.000000000000000000, 1.500000000000000000, 0.000000000000000000 ) ) ;
#364 = AXIS2_PLACEMENT_3D ( 'NONE', #238, #283, #63 ) ;
#365 = DIRECTION ( 'NONE',  ( -0.000000000000000000, -1.000000000000000000, -0.000000000000000000 ) ) ;
#366 = CARTESIAN_POINT ( 'NONE',  ( 0.000000000000000000, 2.999999999999999556, 5.000000000000000000 ) ) ;
#367 = DIRECTION ( 'NONE',  ( 0.000000000000000000, 0.000000000000000000, -1.000000000000000000 ) ) ;
#368 = EDGE_CURVE ( 'NONE', #170, #338, #124, .T. ) ;
#369 = VERTEX_POINT ( 'NONE', #191 ) ;
#370 = AXIS2_PLACEMENT_3D ( 'NONE', #47, #259, #430 ) ;
#371 = CIRCLE ( 'NONE', #377, 5.000000000000000000 ) ;
#372 = ORIENTED_EDGE ( 'NONE', *, *, #237, .F. ) ;
#373 = ADVANCED_FACE ( 'NONE', ( #156 ), #343, .T. ) ;
#374 = ORIENTED_EDGE ( 'NONE', *, *, #328, .T. ) ;
#375 = EDGE_LOOP ( 'NONE', ( #123, #427, #115, #438 ) ) ;
#376 = AXIS2_PLACEMENT_3D ( 'NONE', #426, #223, #37 ) ;
#377 = AXIS2_PLACEMENT_3D ( 'NONE', #260, #84, #80 ) ;
#378 = AXIS2_PLACEMENT_3D ( 'NONE', #14, #164, #302 ) ;
#379 = ORIENTED_EDGE ( 'NONE', *, *, #258, .F. ) ;
#380 = EDGE_LOOP ( 'NONE', ( #87, #379, #155, #267 ) ) ;
#381 = CARTESIAN_POINT ( 'NONE',  ( 1.622657008870243277E-15, 5.500000000000000000, 13.25000000000000178 ) ) ;
#382 = EDGE_CURVE ( 'NONE', #58, #93, #118, .T. ) ;
#383 = ORIENTED_EDGE ( 'NONE', *, *, #217, .F. ) ;
#384 = CARTESIAN_POINT ( 'NONE',  ( 1.530808498934191916E-15, 0.000000000000000000, 12.50000000000000355 ) ) ;
#385 = DIRECTION ( 'NONE',  ( 0.000000000000000000, -0.000000000000000000, 1.000000000000000000 ) ) ;
#386 = VECTOR ( 'NONE', #365, 1000.000000000000000 ) ;
#387 = ORIENTED_EDGE ( 'NONE', *, *, #336, .T. ) ;
#388 = DIRECTION ( 'NONE',  ( 0.000000000000000000, 0.000000000000000000, -1.000000000000000000 ) ) ;
#389 = EDGE_LOOP ( 'NONE', ( #119, #274, #89, #199 ) ) ;
#390 = DIRECTION ( 'NONE',  ( 8.659560562354950115E-17, 0.7071067811865463515, -0.7071067811865487940 ) ) ;
#391 = VERTEX_POINT ( 'NONE', #299 ) ;
#392 = FACE_BOUND ( 'NONE', #62, .T. ) ;
#393 = CONICAL_SURFACE ( 'NONE', #61, 12.24999999999998579, 0.7853981633974473908 ) ;
#394 = CARTESIAN_POINT ( 'NONE',  ( 3.061616997868383141E-16, 0.000000000000000000, 2.500000000000000000 ) ) ;
#395 = DIRECTION ( 'NONE',  ( -0.000000000000000000, 1.000000000000000000, -0.000000000000000000 ) ) ;
#396 = DIRECTION ( 'NONE',  ( -0.000000000000000000, -1.000000000000000000, -0.000000000000000000 ) ) ;
#397 = AXIS2_PLACEMENT_3D ( 'NONE', #256, #81, #327 ) ;
#398 = FACE_OUTER_BOUND ( 'NONE', #20, .T. ) ;
#399 = EDGE_CURVE ( 'NONE', #173, #406, #371, .T. ) ;
#400 = EDGE_LOOP ( 'NONE', ( #372, #420 ) ) ;
#401 = ORIENTED_EDGE ( 'NONE', *, *, #243, .T. ) ;
#402 = ORIENTED_EDGE ( 'NONE', *, *, #382, .T. ) ;
#403 = CARTESIAN_POINT ( 'NONE',  ( 0.000000000000000000, 5.500000000000000000, 0.000000000000000000 ) ) ;
#404 =( GEOMETRIC_REPRESENTATION_CONTEXT ( 3 ) GLOBAL_UNCERTAINTY_ASSIGNED_CONTEXT ( ( #9 ) ) GLOBAL_UNIT_ASSIGNED_CONTEXT ( ( #98, #410, #72 ) ) REPRESENTATION_CONTEXT ( 'NONE', 'WORKASPACE' ) );
#405 = ADVANCED_FACE ( 'NONE', ( #48 ), #305, .F. ) ;
#406 = VERTEX_POINT ( 'NONE', #366 ) ;
#407 =( NAMED_UNIT ( * ) SI_UNIT ( $, .STERADIAN. ) SOLID_ANGLE_UNIT ( ) );
#408 = DIRECTION ( 'NONE',  ( 0.000000000000000000, 0.000000000000000000, 1.000000000000000000 ) ) ;
#409 = ORIENTED_EDGE ( 'NONE', *, *, #26, .F. ) ;
#410 =( NAMED_UNIT ( * ) PLANE_ANGLE_UNIT ( ) SI_UNIT ( $, .RADIAN. ) );
#411 = EDGE_LOOP ( 'NONE', ( #442, #374, #270, #212 ) ) ;
#412 = CARTESIAN_POINT ( 'NONE',  ( 0.000000000000000000, 1.500000000000000000, 0.000000000000000000 ) ) ;
#413 = CIRCLE ( 'NONE', #222, 13.25000000000000178 ) ;
#414 = AXIS2_PLACEMENT_3D ( 'NONE', #403, #265, #200 ) ;
#415 = AXIS2_PLACEMENT_3D ( 'NONE', #332, #326, #13 ) ;
#416 = DIRECTION ( 'NONE',  ( 0.000000000000000000, 1.000000000000000000, 0.000000000000000000 ) ) ;
#417 = LINE ( 'NONE', #138, #104 ) ;
#418 = FACE_OUTER_BOUND ( 'NONE', #447, .T. ) ;
#419 = FACE_BOUND ( 'NONE', #288, .T. ) ;
#420 = ORIENTED_EDGE ( 'NONE', *, *, #368, .F. ) ;
#421 = CARTESIAN_POINT ( 'NONE',  ( 0.000000000000000000, 2.999999999999999556, 0.000000000000000000 ) ) ;
#422 = ADVANCED_FACE ( 'NONE', ( #264, #226 ), #334, .F. ) ;
#423 = CLOSED_SHELL ( 'NONE', ( #405, #293, #229, #92, #443, #459, #166, #273, #88, #361, #422, #83, #373, #252, #46, #77 ) ) ;
#424 = AXIS2_PLACEMENT_3D ( 'NONE', #103, #186, #289 ) ;
#425 = DIRECTION ( 'NONE',  ( 0.000000000000000000, -0.000000000000000000, 1.000000000000000000 ) ) ;
#426 = CARTESIAN_POINT ( 'NONE',  ( 0.000000000000000000, 4.499999999999983125, 0.000000000000000000 ) ) ;
#427 = ORIENTED_EDGE ( 'NONE', *, *, #355, .T. ) ;
#428 = CARTESIAN_POINT ( 'NONE',  ( 6.123233995736766282E-16, 4.499999999999998224, -5.000000000000000000 ) ) ;
#429 = CYLINDRICAL_SURFACE ( 'NONE', #168, 5.000000000000000000 ) ;
#430 = DIRECTION ( 'NONE',  ( 0.000000000000000000, 0.000000000000000000, -1.000000000000000000 ) ) ;
#431 = CARTESIAN_POINT ( 'NONE',  ( 0.000000000000000000, 5.500000000000000000, 0.000000000000000000 ) ) ;
#432 = LINE ( 'NONE', #114, #143 ) ;
#433 = ORIENTED_EDGE ( 'NONE', *, *, #181, .F. ) ;
#434 = FACE_OUTER_BOUND ( 'NONE', #389, .T. ) ;
#435 = ORIENTED_EDGE ( 'NONE', *, *, #225, .T. ) ;
#436 = DIRECTION ( 'NONE',  ( 0.000000000000000000, 0.000000000000000000, 1.000000000000000000 ) ) ;
#437 = EDGE_CURVE ( 'NONE', #173, #316, #187, .T. ) ;
#438 = ORIENTED_EDGE ( 'NONE', *, *, #145, .F. ) ;
#439 = AXIS2_PLACEMENT_3D ( 'NONE', #221, #3, #43 ) ;
#440 = VERTEX_POINT ( 'NONE', #49 ) ;
#441 = PRODUCT_CONTEXT ( 'NONE', #321, 'mechanical' ) ;
#442 = ORIENTED_EDGE ( 'NONE', *, *, #197, .F. ) ;
#443 = ADVANCED_FACE ( 'NONE', ( #292 ), #82, .T. ) ;
#444 = ORIENTED_EDGE ( 'NONE', *, *, #26, .T. ) ;
#445 = CIRCLE ( 'NONE', #357, 2.500000000000000000 ) ;
#446 = CIRCLE ( 'NONE', #376, 13.25000000000000178 ) ;
#447 = EDGE_LOOP ( 'NONE', ( #250, #162, #121, #167 ) ) ;
#448 = CARTESIAN_POINT ( 'NONE',  ( 0.000000000000000000, 1.500000000000000000, -12.50000000000000355 ) ) ;
#449 = ORIENTED_EDGE ( 'NONE', *, *, #308, .F. ) ;
#450 = DIRECTION ( 'NONE',  ( -0.000000000000000000, -1.000000000000000000, -0.000000000000000000 ) ) ;
#451 =( NAMED_UNIT ( * ) PLANE_ANGLE_UNIT ( ) SI_UNIT ( $, .RADIAN. ) );
#452 = AXIS2_PLACEMENT_3D ( 'NONE', #279, #131, #425 ) ;
#453 = AXIS2_PLACEMENT_3D ( 'NONE', #68, #215, #291 ) ;
#454 = ORIENTED_EDGE ( 'NONE', *, *, #243, .F. ) ;
#455 = CARTESIAN_POINT ( 'NONE',  ( 1.530808498934191916E-15, 1.500000000000000000, 12.50000000000000355 ) ) ;
#456 = PLANE ( 'NONE',  #286 ) ;
#457 = FACE_OUTER_BOUND ( 'NONE', #70, .T. ) ;
#458 = FILL_AREA_STYLE ('',( #246 ) ) ;
#459 = ADVANCED_FACE ( 'NONE', ( #434 ), #116, .F. ) ;
ENDSEC;
END-ISO-10303-21;
