ISO-10303-21;
HEADER;
FILE_DESCRIPTION (( 'STEP AP214' ),
    '1' );
FILE_NAME ('1x_rotor_magnet_glue_fixture.STEP',
    '2025-09-05T22:11:12',
    ( '' ),
    ( '' ),
    'SwSTEP 2.0',
    'SolidWorks 2024',
    '' );
FILE_SCHEMA (( 'AUTOMOTIVE_DESIGN' ));
ENDSEC;

DATA;
#1 = VERTEX_POINT ( 'NONE', #150 ) ;
#2 = AXIS2_PLACEMENT_3D ( 'NONE', #132, #18, #182 ) ;
#3 = DIRECTION ( 'NONE',  ( 0.000000000000000000, 0.000000000000000000, 1.000000000000000000 ) ) ;
#4 = FACE_OUTER_BOUND ( 'NONE', #104, .T. ) ;
#5 = CARTESIAN_POINT ( 'NONE',  ( 0.000000000000000000, -8.500000000000000000, 12.50000000000000000 ) ) ;
#6 = ORIENTED_EDGE ( 'NONE', *, *, #152, .F. ) ;
#7 = CARTESIAN_POINT ( 'NONE',  ( 0.000000000000000000, -8.500000000000000000, 0.000000000000000000 ) ) ;
#8 = AXIS2_PLACEMENT_3D ( 'NONE', #75, #151, #202 ) ;
#9 = DIRECTION ( 'NONE',  ( 0.000000000000000000, 0.000000000000000000, 1.000000000000000000 ) ) ;
#10 = DIRECTION ( 'NONE',  ( -0.000000000000000000, -1.000000000000000000, -0.000000000000000000 ) ) ;
#11 = EDGE_CURVE ( 'NONE', #144, #21, #204, .T. ) ;
#12 = DIRECTION ( 'NONE',  ( 0.000000000000000000, 0.000000000000000000, 1.000000000000000000 ) ) ;
#13 = AXIS2_PLACEMENT_3D ( 'NONE', #94, #207, #129 ) ;
#14 = LINE ( 'NONE', #60, #53 ) ;
#15 = PRODUCT_DEFINITION_CONTEXT ( 'detailed design', #211, 'design' ) ;
#16 = DIRECTION ( 'NONE',  ( 0.000000000000000000, 0.000000000000000000, 1.000000000000000000 ) ) ;
#17 = DIRECTION ( 'NONE',  ( 0.000000000000000000, -0.000000000000000000, 1.000000000000000000 ) ) ;
#18 = DIRECTION ( 'NONE',  ( -0.000000000000000000, -1.000000000000000000, -0.000000000000000000 ) ) ;
#19 = PRODUCT_RELATED_PRODUCT_CATEGORY ( 'part', '', ( #133 ) ) ;
#20 = ADVANCED_BREP_SHAPE_REPRESENTATION ( '1x_rotor_magnet_glue_fixture', ( #115, #111 ), #106 ) ;
#21 = VERTEX_POINT ( 'NONE', #32 ) ;
#22 = MECHANICAL_DESIGN_GEOMETRIC_PRESENTATION_REPRESENTATION (  '', ( #38 ), #62 ) ;
#23 = ORIENTED_EDGE ( 'NONE', *, *, #269, .F. ) ;
#24 = ORIENTED_EDGE ( 'NONE', *, *, #65, .T. ) ;
#25 = EDGE_CURVE ( 'NONE', #28, #144, #137, .T. ) ;
#26 = ORIENTED_EDGE ( 'NONE', *, *, #152, .T. ) ;
#27 = CONICAL_SURFACE ( 'NONE', #160, 13.49999999999998401, 0.7853981633974421728 ) ;
#28 = VERTEX_POINT ( 'NONE', #263 ) ;
#29 = AXIS2_PLACEMENT_3D ( 'NONE', #170, #250, #45 ) ;
#30 = LINE ( 'NONE', #5, #84 ) ;
#31 = SURFACE_SIDE_STYLE ('',( #236 ) ) ;
#32 = CARTESIAN_POINT ( 'NONE',  ( 1.653273178848924895E-15, -8.500000000000000000, 13.49999999999998401 ) ) ;
#33 = DIRECTION ( 'NONE',  ( 8.659560562354879857E-17, -0.7071067811865517916, 0.7071067811865431318 ) ) ;
#34 = EDGE_CURVE ( 'NONE', #21, #233, #77, .T. ) ;
#35 =( LENGTH_UNIT ( ) NAMED_UNIT ( * ) SI_UNIT ( .MILLI., .METRE. ) );
#36 = DIRECTION ( 'NONE',  ( 0.000000000000000000, -0.7071067811865517916, -0.7071067811865431318 ) ) ;
#37 = CYLINDRICAL_SURFACE ( 'NONE', #41, 12.50000000000000000 ) ;
#38 = STYLED_ITEM ( 'NONE', ( #198 ), #115 ) ;
#39 = PLANE ( 'NONE',  #131 ) ;
#40 = DIRECTION ( 'NONE',  ( 0.000000000000000000, 1.000000000000000000, 0.000000000000000000 ) ) ;
#41 = AXIS2_PLACEMENT_3D ( 'NONE', #134, #40, #63 ) ;
#42 = ADVANCED_FACE ( 'NONE', ( #122 ), #226, .T. ) ;
#43 = ORIENTED_EDGE ( 'NONE', *, *, #113, .T. ) ;
#44 = ORIENTED_EDGE ( 'NONE', *, *, #240, .F. ) ;
#45 = DIRECTION ( 'NONE',  ( 0.000000000000000000, 0.000000000000000000, 1.000000000000000000 ) ) ;
#46 = AXIS2_PLACEMENT_3D ( 'NONE', #158, #206, #184 ) ;
#47 = ORIENTED_EDGE ( 'NONE', *, *, #185, .F. ) ;
#48 = EDGE_CURVE ( 'NONE', #1, #249, #88, .T. ) ;
#49 = ORIENTED_EDGE ( 'NONE', *, *, #135, .T. ) ;
#50 = ORIENTED_EDGE ( 'NONE', *, *, #98, .T. ) ;
#51 = CARTESIAN_POINT ( 'NONE',  ( 0.000000000000000000, 12.50000000000000000, 0.000000000000000000 ) ) ;
#52 = CYLINDRICAL_SURFACE ( 'NONE', #46, 50.70000000000000284 ) ;
#53 = VECTOR ( 'NONE', #110, 1000.000000000000000 ) ;
#54 = LINE ( 'NONE', #101, #146 ) ;
#55 = ORIENTED_EDGE ( 'NONE', *, *, #34, .F. ) ;
#56 = DIRECTION ( 'NONE',  ( 0.000000000000000000, 0.000000000000000000, 1.000000000000000000 ) ) ;
#57 = PLANE ( 'NONE',  #251 ) ;
#58 = DIRECTION ( 'NONE',  ( 0.000000000000000000, 1.000000000000000000, 0.000000000000000000 ) ) ;
#59 = FACE_OUTER_BOUND ( 'NONE', #227, .T. ) ;
#60 = CARTESIAN_POINT ( 'NONE',  ( 6.208959271677081162E-15, -0.4999999999999865663, -50.70000000000000284 ) ) ;
#61 = AXIS2_PLACEMENT_3D ( 'NONE', #287, #268, #16 ) ;
#62 =( GEOMETRIC_REPRESENTATION_CONTEXT ( 3 ) GLOBAL_UNCERTAINTY_ASSIGNED_CONTEXT ( ( #178 ) ) GLOBAL_UNIT_ASSIGNED_CONTEXT ( ( #35, #174, #127 ) ) REPRESENTATION_CONTEXT ( 'NONE', 'WORKASPACE' ) );
#63 = DIRECTION ( 'NONE',  ( 0.000000000000000000, 0.000000000000000000, 1.000000000000000000 ) ) ;
#64 = DIRECTION ( 'NONE',  ( 0.000000000000000000, 0.000000000000000000, -1.000000000000000000 ) ) ;
#65 = EDGE_CURVE ( 'NONE', #233, #21, #130, .T. ) ;
#66 = CIRCLE ( 'NONE', #2, 12.50000000000000000 ) ;
#67 = ORIENTED_EDGE ( 'NONE', *, *, #169, .F. ) ;
#68 = ORIENTED_EDGE ( 'NONE', *, *, #225, .T. ) ;
#69 = CARTESIAN_POINT ( 'NONE',  ( 0.000000000000000000, -0.4999999999999865663, 50.70000000000000284 ) ) ;
#70 = CARTESIAN_POINT ( 'NONE',  ( 0.000000000000000000, -8.500000000000000000, 0.000000000000000000 ) ) ;
#71 = ORIENTED_EDGE ( 'NONE', *, *, #292, .F. ) ;
#72 = ORIENTED_EDGE ( 'NONE', *, *, #292, .T. ) ;
#73 =( NAMED_UNIT ( * ) PLANE_ANGLE_UNIT ( ) SI_UNIT ( $, .RADIAN. ) );
#74 = ADVANCED_FACE ( 'NONE', ( #280, #4 ), #57, .F. ) ;
#75 = CARTESIAN_POINT ( 'NONE',  ( 0.000000000000000000, -0.4999999999999865663, 0.000000000000000000 ) ) ;
#76 = APPLICATION_PROTOCOL_DEFINITION ( 'draft international standard', 'automotive_design', 1998, #196 ) ;
#77 = CIRCLE ( 'NONE', #155, 13.49999999999998401 ) ;
#78 = AXIS2_PLACEMENT_3D ( 'NONE', #218, #216, #100 ) ;
#79 = DIRECTION ( 'NONE',  ( 0.000000000000000000, 1.000000000000000000, 0.000000000000000000 ) ) ;
#80 = DIRECTION ( 'NONE',  ( 1.000000000000000000, 0.000000000000000000, 0.000000000000000000 ) ) ;
#81 = CARTESIAN_POINT ( 'NONE',  ( 0.000000000000000000, -8.500000000000000000, 0.000000000000000000 ) ) ;
#82 = CARTESIAN_POINT ( 'NONE',  ( 0.000000000000000000, -8.500000000000000000, 0.000000000000000000 ) ) ;
#83 = CARTESIAN_POINT ( 'NONE',  ( 1.653273178848924895E-15, -8.500000000000000000, 13.49999999999998401 ) ) ;
#84 = VECTOR ( 'NONE', #145, 1000.000000000000000 ) ;
#85 = DIRECTION ( 'NONE',  ( 0.000000000000000000, 0.7071067811865456854, 0.7071067811865493491 ) ) ;
#86 = DIRECTION ( 'NONE',  ( 0.000000000000000000, 1.000000000000000000, 0.000000000000000000 ) ) ;
#87 = CARTESIAN_POINT ( 'NONE',  ( 0.000000000000000000, -8.500000000000000000, 0.000000000000000000 ) ) ;
#88 = CIRCLE ( 'NONE', #157, 12.50000000000000000 ) ;
#89 = FACE_OUTER_BOUND ( 'NONE', #262, .T. ) ;
#90 = ADVANCED_FACE ( 'NONE', ( #278 ), #117, .T. ) ;
#91 = EDGE_LOOP ( 'NONE', ( #260, #26, #138, #142 ) ) ;
#92 = VECTOR ( 'NONE', #36, 1000.000000000000114 ) ;
#93 = ORIENTED_EDGE ( 'NONE', *, *, #177, .F. ) ;
#94 = CARTESIAN_POINT ( 'NONE',  ( 0.000000000000000000, 12.50000000000000000, 0.000000000000000000 ) ) ;
#95 = VERTEX_POINT ( 'NONE', #222 ) ;
#96 = ORIENTED_EDGE ( 'NONE', *, *, #185, .T. ) ;
#97 = ORIENTED_EDGE ( 'NONE', *, *, #255, .F. ) ;
#98 = EDGE_CURVE ( 'NONE', #164, #188, #102, .T. ) ;
#99 = DIRECTION ( 'NONE',  ( -0.000000000000000000, -1.000000000000000000, -0.000000000000000000 ) ) ;
#100 = DIRECTION ( 'NONE',  ( 0.000000000000000000, 0.000000000000000000, 1.000000000000000000 ) ) ;
#101 = CARTESIAN_POINT ( 'NONE',  ( 1.530808498934191521E-15, -8.500000000000000000, -12.50000000000000000 ) ) ;
#102 = CIRCLE ( 'NONE', #8, 50.70000000000000284 ) ;
#103 = DIRECTION ( 'NONE',  ( 0.000000000000000000, 0.000000000000000000, 1.000000000000000000 ) ) ;
#104 = EDGE_LOOP ( 'NONE', ( #96, #43 ) ) ;
#105 = ORIENTED_EDGE ( 'NONE', *, *, #11, .T. ) ;
#106 =( GEOMETRIC_REPRESENTATION_CONTEXT ( 3 ) GLOBAL_UNCERTAINTY_ASSIGNED_CONTEXT ( ( #108 ) ) GLOBAL_UNIT_ASSIGNED_CONTEXT ( ( #231, #73, #254 ) ) REPRESENTATION_CONTEXT ( 'NONE', 'WORKASPACE' ) );
#107 = CARTESIAN_POINT ( 'NONE',  ( 6.208959271677081162E-15, -0.4999999999999865663, -50.70000000000000284 ) ) ;
#108 = UNCERTAINTY_MEASURE_WITH_UNIT (LENGTH_MEASURE( 1.000000000000000082E-05 ), #231, 'distance_accuracy_value', 'NONE');
#109 = FACE_BOUND ( 'NONE', #258, .T. ) ;
#110 = DIRECTION ( 'NONE',  ( 8.659560562354953812E-17, 0.7071067811865456854, -0.7071067811865493491 ) ) ;
#111 = AXIS2_PLACEMENT_3D ( 'NONE', #148, #3, #80 ) ;
#112 = FACE_OUTER_BOUND ( 'NONE', #212, .T. ) ;
#113 = EDGE_CURVE ( 'NONE', #95, #253, #281, .T. ) ;
#114 = CARTESIAN_POINT ( 'NONE',  ( 0.000000000000000000, -8.500000000000000000, -13.49999999999998401 ) ) ;
#115 = MANIFOLD_SOLID_BREP ( 'airgap_tool', #243 ) ;
#116 = EDGE_LOOP ( 'NONE', ( #24, #171 ) ) ;
#117 = CONICAL_SURFACE ( 'NONE', #219, 50.70000000000000284, 0.7853981633974509435 ) ;
#118 = ORIENTED_EDGE ( 'NONE', *, *, #169, .T. ) ;
#119 = DIRECTION ( 'NONE',  ( 0.000000000000000000, 0.000000000000000000, 1.000000000000000000 ) ) ;
#120 = ADVANCED_FACE ( 'NONE', ( #189 ), #52, .T. ) ;
#121 = ORIENTED_EDGE ( 'NONE', *, *, #264, .F. ) ;
#122 = FACE_OUTER_BOUND ( 'NONE', #186, .T. ) ;
#123 = SURFACE_STYLE_USAGE ( .BOTH. , #31 ) ;
#124 = SHAPE_DEFINITION_REPRESENTATION ( #290, #20 ) ;
#125 = CARTESIAN_POINT ( 'NONE',  ( 0.000000000000000000, -7.500000000000005329, 0.000000000000000000 ) ) ;
#126 = ORIENTED_EDGE ( 'NONE', *, *, #11, .F. ) ;
#127 =( NAMED_UNIT ( * ) SI_UNIT ( $, .STERADIAN. ) SOLID_ANGLE_UNIT ( ) );
#128 = ADVANCED_FACE ( 'NONE', ( #59 ), #266, .T. ) ;
#129 = DIRECTION ( 'NONE',  ( 0.000000000000000000, 0.000000000000000000, 1.000000000000000000 ) ) ;
#130 = CIRCLE ( 'NONE', #244, 13.49999999999998401 ) ;
#131 = AXIS2_PLACEMENT_3D ( 'NONE', #288, #86, #17 ) ;
#132 = CARTESIAN_POINT ( 'NONE',  ( 0.000000000000000000, -7.500000000000005329, 0.000000000000000000 ) ) ;
#133 = PRODUCT ( '1x_rotor_magnet_glue_fixture', '1x_rotor_magnet_glue_fixture', '', ( #167 ) ) ;
#134 = CARTESIAN_POINT ( 'NONE',  ( 0.000000000000000000, -8.500000000000000000, 0.000000000000000000 ) ) ;
#135 = EDGE_CURVE ( 'NONE', #253, #164, #273, .T. ) ;
#136 = DIRECTION ( 'NONE',  ( 0.000000000000000000, 1.000000000000000000, 0.000000000000000000 ) ) ;
#137 = CIRCLE ( 'NONE', #279, 12.50000000000000000 ) ;
#138 = ORIENTED_EDGE ( 'NONE', *, *, #98, .F. ) ;
#139 = VECTOR ( 'NONE', #85, 1000.000000000000000 ) ;
#140 = VERTEX_POINT ( 'NONE', #242 ) ;
#141 = CARTESIAN_POINT ( 'NONE',  ( 0.000000000000000000, 12.50000000000000000, 12.50000000000000000 ) ) ;
#142 = ORIENTED_EDGE ( 'NONE', *, *, #135, .F. ) ;
#143 = DIRECTION ( 'NONE',  ( 0.000000000000000000, 0.000000000000000000, -1.000000000000000000 ) ) ;
#144 = VERTEX_POINT ( 'NONE', #154 ) ;
#145 = DIRECTION ( 'NONE',  ( 0.000000000000000000, 1.000000000000000000, 0.000000000000000000 ) ) ;
#146 = VECTOR ( 'NONE', #193, 1000.000000000000000 ) ;
#147 = FILL_AREA_STYLE_COLOUR ( '', #291 ) ;
#148 = CARTESIAN_POINT ( 'NONE',  ( 0.000000000000000000, 0.000000000000000000, 0.000000000000000000 ) ) ;
#149 = ORIENTED_EDGE ( 'NONE', *, *, #240, .T. ) ;
#150 = CARTESIAN_POINT ( 'NONE',  ( 1.530808498934191521E-15, 12.50000000000000000, -12.50000000000000000 ) ) ;
#151 = DIRECTION ( 'NONE',  ( -0.000000000000000000, 1.000000000000000000, -0.000000000000000000 ) ) ;
#152 = EDGE_CURVE ( 'NONE', #95, #188, #14, .T. ) ;
#153 = DIRECTION ( 'NONE',  ( 0.000000000000000000, 1.000000000000000000, 0.000000000000000000 ) ) ;
#154 = CARTESIAN_POINT ( 'NONE',  ( 0.000000000000000000, -7.500000000000005329, 12.50000000000000000 ) ) ;
#155 = AXIS2_PLACEMENT_3D ( 'NONE', #81, #58, #239 ) ;
#156 = FACE_OUTER_BOUND ( 'NONE', #276, .T. ) ;
#157 = AXIS2_PLACEMENT_3D ( 'NONE', #175, #79, #56 ) ;
#158 = CARTESIAN_POINT ( 'NONE',  ( 0.000000000000000000, -8.500000000000000000, 0.000000000000000000 ) ) ;
#159 = LINE ( 'NONE', #165, #92 ) ;
#160 = AXIS2_PLACEMENT_3D ( 'NONE', #70, #99, #143 ) ;
#161 = AXIS2_PLACEMENT_3D ( 'NONE', #208, #223, #64 ) ;
#162 = ADVANCED_FACE ( 'NONE', ( #112 ), #248, .F. ) ;
#163 = ORIENTED_EDGE ( 'NONE', *, *, #48, .T. ) ;
#164 = VERTEX_POINT ( 'NONE', #246 ) ;
#165 = CARTESIAN_POINT ( 'NONE',  ( 0.000000000000000000, -8.500000000000000000, -13.49999999999998401 ) ) ;
#166 = ORIENTED_EDGE ( 'NONE', *, *, #177, .T. ) ;
#167 = PRODUCT_CONTEXT ( 'NONE', #196, 'mechanical' ) ;
#168 = ORIENTED_EDGE ( 'NONE', *, *, #269, .T. ) ;
#169 = EDGE_CURVE ( 'NONE', #249, #1, #235, .T. ) ;
#170 = CARTESIAN_POINT ( 'NONE',  ( 0.000000000000000000, -0.4999999999999865663, 0.000000000000000000 ) ) ;
#171 = ORIENTED_EDGE ( 'NONE', *, *, #34, .T. ) ;
#172 = CARTESIAN_POINT ( 'NONE',  ( 0.000000000000000000, -8.500000000000000000, 0.000000000000000000 ) ) ;
#173 = AXIS2_PLACEMENT_3D ( 'NONE', #87, #205, #265 ) ;
#174 =( NAMED_UNIT ( * ) PLANE_ANGLE_UNIT ( ) SI_UNIT ( $, .RADIAN. ) );
#175 = CARTESIAN_POINT ( 'NONE',  ( 0.000000000000000000, 12.50000000000000000, 0.000000000000000000 ) ) ;
#176 = CARTESIAN_POINT ( 'NONE',  ( 0.000000000000000000, -0.4999999999999865663, 0.000000000000000000 ) ) ;
#177 = EDGE_CURVE ( 'NONE', #28, #233, #159, .T. ) ;
#178 = UNCERTAINTY_MEASURE_WITH_UNIT (LENGTH_MEASURE( 1.000000000000000082E-05 ), #35, 'distance_accuracy_value', 'NONE');
#179 = DIRECTION ( 'NONE',  ( 0.000000000000000000, 0.000000000000000000, 1.000000000000000000 ) ) ;
#180 = CIRCLE ( 'NONE', #271, 50.70000000000000284 ) ;
#181 = CARTESIAN_POINT ( 'NONE',  ( 0.000000000000000000, -8.500000000000000000, 0.000000000000000000 ) ) ;
#182 = DIRECTION ( 'NONE',  ( 0.000000000000000000, 0.000000000000000000, 1.000000000000000000 ) ) ;
#183 = AXIS2_PLACEMENT_3D ( 'NONE', #172, #10, #261 ) ;
#184 = DIRECTION ( 'NONE',  ( 0.000000000000000000, 0.000000000000000000, 1.000000000000000000 ) ) ;
#185 = EDGE_CURVE ( 'NONE', #253, #95, #187, .T. ) ;
#186 = EDGE_LOOP ( 'NONE', ( #6, #47, #49, #256 ) ) ;
#187 = CIRCLE ( 'NONE', #297, 42.69999999999994600 ) ;
#188 = VERTEX_POINT ( 'NONE', #107 ) ;
#189 = FACE_OUTER_BOUND ( 'NONE', #274, .T. ) ;
#190 = ORIENTED_EDGE ( 'NONE', *, *, #225, .F. ) ;
#191 = EDGE_CURVE ( 'NONE', #188, #140, #247, .T. ) ;
#192 = ORIENTED_EDGE ( 'NONE', *, *, #277, .T. ) ;
#193 = DIRECTION ( 'NONE',  ( 0.000000000000000000, 1.000000000000000000, 0.000000000000000000 ) ) ;
#194 = ORIENTED_EDGE ( 'NONE', *, *, #48, .F. ) ;
#195 = APPLICATION_PROTOCOL_DEFINITION ( 'draft international standard', 'automotive_design', 1998, #211 ) ;
#196 = APPLICATION_CONTEXT ( 'automotive_design' ) ;
#197 = DIRECTION ( 'NONE',  ( 0.000000000000000000, -0.000000000000000000, 1.000000000000000000 ) ) ;
#198 = PRESENTATION_STYLE_ASSIGNMENT (( #123 ) ) ;
#199 = VECTOR ( 'NONE', #33, 1000.000000000000114 ) ;
#200 = CARTESIAN_POINT ( 'NONE',  ( 0.000000000000000000, -8.500000000000000000, 42.69999999999994600 ) ) ;
#201 = DIRECTION ( 'NONE',  ( -0.000000000000000000, 1.000000000000000000, -0.000000000000000000 ) ) ;
#202 = DIRECTION ( 'NONE',  ( 0.000000000000000000, 0.000000000000000000, 1.000000000000000000 ) ) ;
#203 = PRODUCT_DEFINITION_FORMATION_WITH_SPECIFIED_SOURCE ( 'ANY', '', #133, .NOT_KNOWN. ) ;
#204 = LINE ( 'NONE', #83, #199 ) ;
#205 = DIRECTION ( 'NONE',  ( 0.000000000000000000, 1.000000000000000000, 0.000000000000000000 ) ) ;
#206 = DIRECTION ( 'NONE',  ( 0.000000000000000000, 1.000000000000000000, 0.000000000000000000 ) ) ;
#207 = DIRECTION ( 'NONE',  ( 0.000000000000000000, 1.000000000000000000, 0.000000000000000000 ) ) ;
#208 = CARTESIAN_POINT ( 'NONE',  ( 0.000000000000000000, -8.500000000000000000, 0.000000000000000000 ) ) ;
#209 = DIRECTION ( 'NONE',  ( 0.000000000000000000, 1.000000000000000000, 0.000000000000000000 ) ) ;
#210 = ADVANCED_FACE ( 'NONE', ( #156 ), #224, .F. ) ;
#211 = APPLICATION_CONTEXT ( 'automotive_design' ) ;
#212 = EDGE_LOOP ( 'NONE', ( #190, #105, #299, #93 ) ) ;
#213 = ORIENTED_EDGE ( 'NONE', *, *, #255, .T. ) ;
#214 = DIRECTION ( 'NONE',  ( 0.000000000000000000, 1.000000000000000000, 0.000000000000000000 ) ) ;
#215 = VECTOR ( 'NONE', #209, 1000.000000000000000 ) ;
#216 = DIRECTION ( 'NONE',  ( -0.000000000000000000, 1.000000000000000000, -0.000000000000000000 ) ) ;
#217 = ADVANCED_FACE ( 'NONE', ( #89 ), #37, .F. ) ;
#218 = CARTESIAN_POINT ( 'NONE',  ( 0.000000000000000000, -0.4999999999999865663, 0.000000000000000000 ) ) ;
#219 = AXIS2_PLACEMENT_3D ( 'NONE', #176, #201, #9 ) ;
#220 = FILL_AREA_STYLE ('',( #147 ) ) ;
#221 = ADVANCED_FACE ( 'NONE', ( #245, #109 ), #39, .T. ) ;
#222 = CARTESIAN_POINT ( 'NONE',  ( 5.719100552018136625E-15, -8.500000000000000000, -42.69999999999994600 ) ) ;
#223 = DIRECTION ( 'NONE',  ( -0.000000000000000000, -1.000000000000000000, -0.000000000000000000 ) ) ;
#224 = CYLINDRICAL_SURFACE ( 'NONE', #173, 12.50000000000000000 ) ;
#225 = EDGE_CURVE ( 'NONE', #144, #28, #66, .T. ) ;
#226 = CONICAL_SURFACE ( 'NONE', #78, 50.70000000000000284, 0.7853981633974509435 ) ;
#227 = EDGE_LOOP ( 'NONE', ( #282, #192, #149, #97 ) ) ;
#228 = FACE_OUTER_BOUND ( 'NONE', #272, .T. ) ;
#229 = ORIENTED_EDGE ( 'NONE', *, *, #25, .T. ) ;
#230 = CIRCLE ( 'NONE', #238, 50.70000000000000284 ) ;
#231 =( LENGTH_UNIT ( ) NAMED_UNIT ( * ) SI_UNIT ( .MILLI., .METRE. ) );
#232 = PRODUCT_DEFINITION ( 'UNKNOWN', '', #203, #15 ) ;
#233 = VERTEX_POINT ( 'NONE', #114 ) ;
#234 = DIRECTION ( 'NONE',  ( 0.000000000000000000, 0.000000000000000000, 1.000000000000000000 ) ) ;
#235 = CIRCLE ( 'NONE', #13, 12.50000000000000000 ) ;
#236 = SURFACE_STYLE_FILL_AREA ( #220 ) ;
#237 = EDGE_LOOP ( 'NONE', ( #72, #213 ) ) ;
#238 = AXIS2_PLACEMENT_3D ( 'NONE', #51, #252, #119 ) ;
#239 = DIRECTION ( 'NONE',  ( 0.000000000000000000, 0.000000000000000000, 1.000000000000000000 ) ) ;
#240 = EDGE_CURVE ( 'NONE', #164, #270, #293, .T. ) ;
#241 = DIRECTION ( 'NONE',  ( 0.000000000000000000, 1.000000000000000000, 0.000000000000000000 ) ) ;
#242 = CARTESIAN_POINT ( 'NONE',  ( 6.208959271677081162E-15, 12.50000000000000000, -50.70000000000000284 ) ) ;
#243 = CLOSED_SHELL ( 'NONE', ( #162, #90, #210, #120, #128, #74, #217, #221, #42, #285 ) ) ;
#244 = AXIS2_PLACEMENT_3D ( 'NONE', #7, #153, #103 ) ;
#245 = FACE_OUTER_BOUND ( 'NONE', #237, .T. ) ;
#246 = CARTESIAN_POINT ( 'NONE',  ( 0.000000000000000000, -0.4999999999999865663, 50.70000000000000284 ) ) ;
#247 = LINE ( 'NONE', #294, #259 ) ;
#248 = CONICAL_SURFACE ( 'NONE', #161, 13.49999999999998401, 0.7853981633974421728 ) ;
#249 = VERTEX_POINT ( 'NONE', #141 ) ;
#250 = DIRECTION ( 'NONE',  ( -0.000000000000000000, 1.000000000000000000, -0.000000000000000000 ) ) ;
#251 = AXIS2_PLACEMENT_3D ( 'NONE', #82, #241, #197 ) ;
#252 = DIRECTION ( 'NONE',  ( 0.000000000000000000, 1.000000000000000000, 0.000000000000000000 ) ) ;
#253 = VERTEX_POINT ( 'NONE', #200 ) ;
#254 =( NAMED_UNIT ( * ) SI_UNIT ( $, .STERADIAN. ) SOLID_ANGLE_UNIT ( ) );
#255 = EDGE_CURVE ( 'NONE', #140, #270, #180, .T. ) ;
#256 = ORIENTED_EDGE ( 'NONE', *, *, #277, .F. ) ;
#257 = CARTESIAN_POINT ( 'NONE',  ( 0.000000000000000000, 12.50000000000000000, 50.70000000000000284 ) ) ;
#258 = EDGE_LOOP ( 'NONE', ( #67, #194 ) ) ;
#259 = VECTOR ( 'NONE', #136, 1000.000000000000000 ) ;
#260 = ORIENTED_EDGE ( 'NONE', *, *, #113, .F. ) ;
#261 = DIRECTION ( 'NONE',  ( 0.000000000000000000, 0.000000000000000000, 1.000000000000000000 ) ) ;
#262 = EDGE_LOOP ( 'NONE', ( #121, #229, #168, #118 ) ) ;
#263 = CARTESIAN_POINT ( 'NONE',  ( 1.530808498934191521E-15, -7.500000000000005329, -12.50000000000000000 ) ) ;
#264 = EDGE_CURVE ( 'NONE', #28, #1, #54, .T. ) ;
#265 = DIRECTION ( 'NONE',  ( 0.000000000000000000, 0.000000000000000000, 1.000000000000000000 ) ) ;
#266 = CYLINDRICAL_SURFACE ( 'NONE', #61, 50.70000000000000284 ) ;
#267 = CARTESIAN_POINT ( 'NONE',  ( 0.000000000000000000, -8.500000000000000000, 50.70000000000000284 ) ) ;
#268 = DIRECTION ( 'NONE',  ( 0.000000000000000000, 1.000000000000000000, 0.000000000000000000 ) ) ;
#269 = EDGE_CURVE ( 'NONE', #144, #249, #30, .T. ) ;
#270 = VERTEX_POINT ( 'NONE', #257 ) ;
#271 = AXIS2_PLACEMENT_3D ( 'NONE', #275, #214, #234 ) ;
#272 = EDGE_LOOP ( 'NONE', ( #126, #298, #166, #55 ) ) ;
#273 = LINE ( 'NONE', #69, #139 ) ;
#274 = EDGE_LOOP ( 'NONE', ( #50, #295, #71, #44 ) ) ;
#275 = CARTESIAN_POINT ( 'NONE',  ( 0.000000000000000000, 12.50000000000000000, 0.000000000000000000 ) ) ;
#276 = EDGE_LOOP ( 'NONE', ( #68, #283, #163, #23 ) ) ;
#277 = EDGE_CURVE ( 'NONE', #188, #164, #286, .T. ) ;
#278 = FACE_OUTER_BOUND ( 'NONE', #91, .T. ) ;
#279 = AXIS2_PLACEMENT_3D ( 'NONE', #125, #284, #179 ) ;
#280 = FACE_BOUND ( 'NONE', #116, .T. ) ;
#281 = CIRCLE ( 'NONE', #183, 42.69999999999994600 ) ;
#282 = ORIENTED_EDGE ( 'NONE', *, *, #191, .F. ) ;
#283 = ORIENTED_EDGE ( 'NONE', *, *, #264, .T. ) ;
#284 = DIRECTION ( 'NONE',  ( -0.000000000000000000, -1.000000000000000000, -0.000000000000000000 ) ) ;
#285 = ADVANCED_FACE ( 'NONE', ( #228 ), #27, .F. ) ;
#286 = CIRCLE ( 'NONE', #29, 50.70000000000000284 ) ;
#287 = CARTESIAN_POINT ( 'NONE',  ( 0.000000000000000000, -8.500000000000000000, 0.000000000000000000 ) ) ;
#288 = CARTESIAN_POINT ( 'NONE',  ( 0.000000000000000000, 12.50000000000000000, 0.000000000000000000 ) ) ;
#289 = DIRECTION ( 'NONE',  ( -0.000000000000000000, -1.000000000000000000, -0.000000000000000000 ) ) ;
#290 = PRODUCT_DEFINITION_SHAPE ( 'NONE', 'NONE',  #232 ) ;
#291 = COLOUR_RGB ( '',0.8980392156862745390, 0.8980392156862745390, 0.8980392156862745390 ) ;
#292 = EDGE_CURVE ( 'NONE', #270, #140, #230, .T. ) ;
#293 = LINE ( 'NONE', #267, #215 ) ;
#294 = CARTESIAN_POINT ( 'NONE',  ( 6.208959271677081162E-15, -8.500000000000000000, -50.70000000000000284 ) ) ;
#295 = ORIENTED_EDGE ( 'NONE', *, *, #191, .T. ) ;
#296 = PRESENTATION_LAYER_ASSIGNMENT (  '', '', ( #38 ) ) ;
#297 = AXIS2_PLACEMENT_3D ( 'NONE', #181, #289, #12 ) ;
#298 = ORIENTED_EDGE ( 'NONE', *, *, #25, .F. ) ;
#299 = ORIENTED_EDGE ( 'NONE', *, *, #65, .F. ) ;
ENDSEC;
END-ISO-10303-21;
