ISO-10303-21;
HEADER;
FILE_DESCRIPTION (( 'STEP AP214' ),
    '1' );
FILE_NAME ('3x_carrier_spacer.STEP',
    '2025-09-05T22:03:05',
    ( '' ),
    ( '' ),
    'SwSTEP 2.0',
    'SolidWorks 2024',
    '' );
FILE_SCHEMA (( 'AUTOMOTIVE_DESIGN' ));
ENDSEC;

DATA;
#1 = ORIENTED_EDGE ( 'NONE', *, *, #84, .T. ) ;
#2 = VECTOR ( 'NONE', #496, 1000.000000000000000 ) ;
#3 = CARTESIAN_POINT ( 'NONE',  ( -31.90184760431295885, 2.504419978995468643, -5.249999999999999112 ) ) ;
#4 = DIRECTION ( 'NONE',  ( 1.000000000000000000, 0.000000000000000000, 0.000000000000000000 ) ) ;
#5 = EDGE_LOOP ( 'NONE', ( #442, #693, #239, #431 ) ) ;
#6 =( NAMED_UNIT ( * ) SI_UNIT ( $, .STERADIAN. ) SOLID_ANGLE_UNIT ( ) );
#7 = FACE_OUTER_BOUND ( 'NONE', #254, .T. ) ;
#8 = ORIENTED_EDGE ( 'NONE', *, *, #480, .T. ) ;
#9 = FACE_OUTER_BOUND ( 'NONE', #40, .T. ) ;
#10 = ADVANCED_FACE ( 'NONE', ( #130 ), #246, .T. ) ;
#11 = CARTESIAN_POINT ( 'NONE',  ( -30.45208484467325150, -0.006642779621762826686, -5.250000000000000000 ) ) ;
#12 = EDGE_CURVE ( 'NONE', #753, #607, #115, .T. ) ;
#13 = EDGE_CURVE ( 'NONE', #281, #385, #655, .T. ) ;
#14 = ORIENTED_EDGE ( 'NONE', *, *, #395, .F. ) ;
#15 = VECTOR ( 'NONE', #765, 1000.000000000000114 ) ;
#16 = AXIS2_PLACEMENT_3D ( 'NONE', #767, #180, #397 ) ;
#17 = DIRECTION ( 'NONE',  ( 0.000000000000000000, 0.000000000000000000, 1.000000000000000000 ) ) ;
#18 = ORIENTED_EDGE ( 'NONE', *, *, #282, .F. ) ;
#19 = FACE_OUTER_BOUND ( 'NONE', #613, .T. ) ;
#20 = ORIENTED_EDGE ( 'NONE', *, *, #700, .T. ) ;
#21 = FACE_OUTER_BOUND ( 'NONE', #98, .T. ) ;
#22 = ORIENTED_EDGE ( 'NONE', *, *, #184, .F. ) ;
#23 = VECTOR ( 'NONE', #182, 1000.000000000000000 ) ;
#24 = CIRCLE ( 'NONE', #191, 1.200000000000002842 ) ;
#25 = FILL_AREA_STYLE_COLOUR ( '', #746 ) ;
#26 = ADVANCED_FACE ( 'NONE', ( #469 ), #370, .F. ) ;
#27 = AXIS2_PLACEMENT_3D ( 'NONE', #630, #447, #697 ) ;
#28 = ORIENTED_EDGE ( 'NONE', *, *, #363, .F. ) ;
#29 = CARTESIAN_POINT ( 'NONE',  ( -25.54774941164087210, 14.75000000000012434, -4.800000000000008704 ) ) ;
#30 = DIRECTION ( 'NONE',  ( 0.000000000000000000, 0.000000000000000000, -1.000000000000000000 ) ) ;
#31 = DIRECTION ( 'NONE',  ( -0.000000000000000000, -0.000000000000000000, -1.000000000000000000 ) ) ;
#32 = ORIENTED_EDGE ( 'NONE', *, *, #13, .T. ) ;
#33 = LINE ( 'NONE', #265, #177 ) ;
#34 = DIRECTION ( 'NONE',  ( -1.000000000000000000, 0.000000000000000000, 0.000000000000000000 ) ) ;
#35 = ORIENTED_EDGE ( 'NONE', *, *, #187, .T. ) ;
#36 = DIRECTION ( 'NONE',  ( -0.5000000000000044409, -0.8660254037844361541, 0.000000000000000000 ) ) ;
#37 = AXIS2_PLACEMENT_3D ( 'NONE', #79, #17, #658 ) ;
#38 = CARTESIAN_POINT ( 'NONE',  ( -18.36223448575293915, 23.63754155655114531, -5.249999999999999112 ) ) ;
#39 =( GEOMETRIC_REPRESENTATION_CONTEXT ( 3 ) GLOBAL_UNCERTAINTY_ASSIGNED_CONTEXT ( ( #402 ) ) GLOBAL_UNIT_ASSIGNED_CONTEXT ( ( #735, #306, #6 ) ) REPRESENTATION_CONTEXT ( 'NONE', 'WORKASPACE' ) );
#40 = EDGE_LOOP ( 'NONE', ( #54, #689, #415, #609 ) ) ;
#41 = CARTESIAN_POINT ( 'NONE',  ( -17.21277491685817651, -9.937800231748518343, -5.250000000000000000 ) ) ;
#42 = ORIENTED_EDGE ( 'NONE', *, *, #66, .T. ) ;
#43 = CARTESIAN_POINT ( 'NONE',  ( -25.54774941164087210, 14.75000000000012434, -6.750000000000000888 ) ) ;
#44 = EDGE_CURVE ( 'NONE', #338, #401, #596, .T. ) ;
#45 = CARTESIAN_POINT ( 'NONE',  ( 0.000000000000000000, 0.000000000000000000, -5.250000000000000888 ) ) ;
#46 = VERTEX_POINT ( 'NONE', #178 ) ;
#47 = DIRECTION ( 'NONE',  ( 0.000000000000000000, 0.000000000000000000, 1.000000000000000000 ) ) ;
#48 = CARTESIAN_POINT ( 'NONE',  ( -15.22028960643245554, 26.37560046349702603, -5.250000000000000000 ) ) ;
#49 = ADVANCED_FACE ( 'NONE', ( #408 ), #57, .F. ) ;
#50 = AXIS2_PLACEMENT_3D ( 'NONE', #218, #626, #278 ) ;
#51 = VERTEX_POINT ( 'NONE', #611 ) ;
#52 = FACE_OUTER_BOUND ( 'NONE', #5, .T. ) ;
#53 = FACE_BOUND ( 'NONE', #514, .T. ) ;
#54 = ORIENTED_EDGE ( 'NONE', *, *, #245, .F. ) ;
#55 = DIRECTION ( 'NONE',  ( -1.000000000000000000, 0.000000000000000000, 0.000000000000000000 ) ) ;
#56 = CARTESIAN_POINT ( 'NONE',  ( -26.37274941164087849, 13.32105808375580835, -5.250000000000000000 ) ) ;
#57 = CYLINDRICAL_SURFACE ( 'NONE', #667, 16.00000000000000000 ) ;
#58 = DIRECTION ( 'NONE',  ( 0.000000000000000000, 0.000000000000000000, -1.000000000000000000 ) ) ;
#59 = CYLINDRICAL_SURFACE ( 'NONE', #199, 1.200000000000002842 ) ;
#60 = ORIENTED_EDGE ( 'NONE', *, *, #417, .F. ) ;
#61 = AXIS2_PLACEMENT_3D ( 'NONE', #316, #433, #603 ) ;
#62 = AXIS2_PLACEMENT_3D ( 'NONE', #592, #63, #55 ) ;
#63 = DIRECTION ( 'NONE',  ( 0.000000000000000000, 0.000000000000000000, -1.000000000000000000 ) ) ;
#64 = FACE_BOUND ( 'NONE', #473, .T. ) ;
#65 = ORIENTED_EDGE ( 'NONE', *, *, #675, .F. ) ;
#66 = EDGE_CURVE ( 'NONE', #338, #659, #133, .T. ) ;
#67 = EDGE_CURVE ( 'NONE', #720, #600, #78, .T. ) ;
#68 = FILL_AREA_STYLE ('',( #25 ) ) ;
#69 = ORIENTED_EDGE ( 'NONE', *, *, #476, .F. ) ;
#70 = EDGE_CURVE ( 'NONE', #257, #75, #321, .T. ) ;
#71 = EDGE_LOOP ( 'NONE', ( #574, #683, #502, #72 ) ) ;
#72 = ORIENTED_EDGE ( 'NONE', *, *, #12, .F. ) ;
#73 = DIRECTION ( 'NONE',  ( -0.5000000000000046629, -0.8660254037844359321, 0.000000000000000000 ) ) ;
#74 = DIRECTION ( 'NONE',  ( 0.5000000000000044409, 0.8660254037844360431, 0.000000000000000000 ) ) ;
#75 = VERTEX_POINT ( 'NONE', #546 ) ;
#76 = CIRCLE ( 'NONE', #259, 1.649999999999994582 ) ;
#77 = PRODUCT_DEFINITION_FORMATION_WITH_SPECIFIED_SOURCE ( 'ANY', '', #713, .NOT_KNOWN. ) ;
#78 = CIRCLE ( 'NONE', #61, 16.00000000000000000 ) ;
#79 = CARTESIAN_POINT ( 'NONE',  ( -29.05182871386008259, 5.122621241174761586, 6.750000000000000888 ) ) ;
#80 = VERTEX_POINT ( 'NONE', #726 ) ;
#81 = LINE ( 'NONE', #660, #481 ) ;
#82 = VERTEX_POINT ( 'NONE', #421 ) ;
#83 = APPLICATION_PROTOCOL_DEFINITION ( 'draft international standard', 'automotive_design', 1998, #474 ) ;
#84 = EDGE_CURVE ( 'NONE', #210, #80, #238, .T. ) ;
#85 = VERTEX_POINT ( 'NONE', #742 ) ;
#86 = SHAPE_DEFINITION_REPRESENTATION ( #652, #521 ) ;
#87 = VECTOR ( 'NONE', #441, 1000.000000000000000 ) ;
#88 = CIRCLE ( 'NONE', #488, 16.00000000000000000 ) ;
#89 = FACE_OUTER_BOUND ( 'NONE', #494, .T. ) ;
#90 = VECTOR ( 'NONE', #695, 1000.000000000000000 ) ;
#91 = CARTESIAN_POINT ( 'NONE',  ( -18.11981512571183828, 26.37560046349702603, 6.750000000000000888 ) ) ;
#92 = ORIENTED_EDGE ( 'NONE', *, *, #559, .T. ) ;
#93 = DIRECTION ( 'NONE',  ( -0.5000000000000001110, 0.8660254037844385966, 0.000000000000000000 ) ) ;
#94 = FACE_OUTER_BOUND ( 'NONE', #666, .T. ) ;
#95 = EDGE_CURVE ( 'NONE', #766, #369, #100, .T. ) ;
#96 = EDGE_LOOP ( 'NONE', ( #322, #372, #60, #647 ) ) ;
#97 = DIRECTION ( 'NONE',  ( -0.5000000000000041078, -0.8660254037844362651, 0.000000000000000000 ) ) ;
#98 = EDGE_LOOP ( 'NONE', ( #65, #389, #633, #520 ) ) ;
#99 = CYLINDRICAL_SURFACE ( 'NONE', #300, 16.00000000000000000 ) ;
#100 = LINE ( 'NONE', #158, #2 ) ;
#101 = CONICAL_SURFACE ( 'NONE', #483, 3.150000000000002576, 0.7853981633974500554 ) ;
#102 = VECTOR ( 'NONE', #747, 1000.000000000000000 ) ;
#103 = ORIENTED_EDGE ( 'NONE', *, *, #416, .T. ) ;
#104 = DIRECTION ( 'NONE',  ( 0.000000000000000000, 0.000000000000000000, 1.000000000000000000 ) ) ;
#105 = CYLINDRICAL_SURFACE ( 'NONE', #721, 1.500000000000001332 ) ;
#106 = VERTEX_POINT ( 'NONE', #752 ) ;
#107 = EDGE_CURVE ( 'NONE', #720, #51, #330, .T. ) ;
#108 = DIRECTION ( 'NONE',  ( -0.5000000000000044409, -0.8660254037844361541, 0.000000000000000000 ) ) ;
#109 = DIRECTION ( 'NONE',  ( 1.000000000000000000, 0.000000000000000000, 0.000000000000000000 ) ) ;
#110 = ORIENTED_EDGE ( 'NONE', *, *, #150, .F. ) ;
#111 = CARTESIAN_POINT ( 'NONE',  ( -29.65182871386009111, 4.083390756633436425, 4.950000000000008171 ) ) ;
#112 = LINE ( 'NONE', #351, #543 ) ;
#113 = AXIS2_PLACEMENT_3D ( 'NONE', #117, #641, #768 ) ;
#114 = CIRCLE ( 'NONE', #545, 15.00000000000000000 ) ;
#115 = LINE ( 'NONE', #349, #23 ) ;
#116 = CARTESIAN_POINT ( 'NONE',  ( -18.21223448575294057, 23.89734917768647193, 5.250000000000000000 ) ) ;
#117 = CARTESIAN_POINT ( 'NONE',  ( -29.05182871386008259, 5.122621241174761586, 6.750000000000002665 ) ) ;
#118 = EDGE_LOOP ( 'NONE', ( #194, #419, #749, #586 ) ) ;
#119 = CARTESIAN_POINT ( 'NONE',  ( -30.46342088717392826, 1.493314384480073587, -5.250000000000000000 ) ) ;
#120 = DIRECTION ( 'NONE',  ( 0.000000000000000000, 0.000000000000000000, 1.000000000000000000 ) ) ;
#121 = DIRECTION ( 'NONE',  ( -1.000000000000000000, 0.000000000000000000, 0.000000000000000000 ) ) ;
#122 = DIRECTION ( 'NONE',  ( 0.000000000000000000, -0.000000000000000000, -1.000000000000000000 ) ) ;
#123 = FACE_OUTER_BOUND ( 'NONE', #387, .T. ) ;
#124 = ORIENTED_EDGE ( 'NONE', *, *, #230, .F. ) ;
#125 = ADVANCED_FACE ( 'NONE', ( #562 ), #219, .F. ) ;
#126 = ORIENTED_EDGE ( 'NONE', *, *, #342, .F. ) ;
#127 = AXIS2_PLACEMENT_3D ( 'NONE', #45, #216, #681 ) ;
#128 = EDGE_CURVE ( 'NONE', #385, #314, #454, .T. ) ;
#129 = DIRECTION ( 'NONE',  ( 0.000000000000000000, 0.000000000000000000, 1.000000000000000000 ) ) ;
#130 = FACE_OUTER_BOUND ( 'NONE', #279, .T. ) ;
#131 = VERTEX_POINT ( 'NONE', #327 ) ;
#132 = LINE ( 'NONE', #544, #692 ) ;
#133 = LINE ( 'NONE', #493, #453 ) ;
#134 = EDGE_LOOP ( 'NONE', ( #22, #727, #445, #717 ) ) ;
#135 = CARTESIAN_POINT ( 'NONE',  ( -29.05182871386008259, 5.122621241174761586, 4.950000000000008171 ) ) ;
#136 = ORIENTED_EDGE ( 'NONE', *, *, #430, .F. ) ;
#137 = AXIS2_PLACEMENT_3D ( 'NONE', #165, #398, #161 ) ;
#138 = VECTOR ( 'NONE', #622, 1000.000000000000000 ) ;
#139 = AXIS2_PLACEMENT_3D ( 'NONE', #352, #186, #362 ) ;
#140 = DIRECTION ( 'NONE',  ( -0.000000000000000000, -0.000000000000000000, -1.000000000000000000 ) ) ;
#141 = ORIENTED_EDGE ( 'NONE', *, *, #541, .T. ) ;
#142 = DIRECTION ( 'NONE',  ( 0.000000000000000000, 0.000000000000000000, 1.000000000000000000 ) ) ;
#143 = VERTEX_POINT ( 'NONE', #38 ) ;
#144 = UNCERTAINTY_MEASURE_WITH_UNIT (LENGTH_MEASURE( 1.000000000000000082E-05 ), #371, 'distance_accuracy_value', 'NONE');
#145 = CARTESIAN_POINT ( 'NONE',  ( -16.00000000000000000, 19.87560046349701892, -5.250000000000000000 ) ) ;
#146 = EDGE_CURVE ( 'NONE', #394, #686, #429, .T. ) ;
#147 = ORIENTED_EDGE ( 'NONE', *, *, #738, .T. ) ;
#148 = PRODUCT_CONTEXT ( 'NONE', #474, 'mechanical' ) ;
#149 = EDGE_CURVE ( 'NONE', #301, #766, #569, .T. ) ;
#150 = EDGE_CURVE ( 'NONE', #374, #394, #500, .T. ) ;
#151 = VECTOR ( 'NONE', #163, 1000.000000000000000 ) ;
#152 = DIRECTION ( 'NONE',  ( -1.000000000000000000, 0.000000000000000000, 0.000000000000000000 ) ) ;
#153 = EDGE_CURVE ( 'NONE', #560, #82, #533, .T. ) ;
#154 = CARTESIAN_POINT ( 'NONE',  ( -25.54774941164087210, 14.75000000000012434, -5.250000000000000000 ) ) ;
#155 = ORIENTED_EDGE ( 'NONE', *, *, #672, .T. ) ;
#156 = PRODUCT_DEFINITION_CONTEXT ( 'detailed design', #750, 'design' ) ;
#157 = DIRECTION ( 'NONE',  ( 1.000000000000000000, 0.000000000000000000, 0.000000000000000000 ) ) ;
#158 = CARTESIAN_POINT ( 'NONE',  ( -30.45208484467325150, -0.006642779621762393005, 5.250000000000000000 ) ) ;
#159 = ORIENTED_EDGE ( 'NONE', *, *, #263, .T. ) ;
#160 = DIRECTION ( 'NONE',  ( -1.000000000000000000, 1.914725358886527419E-16, 0.000000000000000000 ) ) ;
#161 = DIRECTION ( 'NONE',  ( -0.5000000000000044409, -0.8660254037844361541, 0.000000000000000000 ) ) ;
#162 = ORIENTED_EDGE ( 'NONE', *, *, #738, .F. ) ;
#163 = DIRECTION ( 'NONE',  ( -0.000000000000000000, -0.000000000000000000, 1.000000000000000000 ) ) ;
#164 = AXIS2_PLACEMENT_3D ( 'NONE', #446, #636, #332 ) ;
#165 = CARTESIAN_POINT ( 'NONE',  ( -18.96223448575294768, 22.59831107200982458, -5.249999999999999112 ) ) ;
#166 = ORIENTED_EDGE ( 'NONE', *, *, #376, .T. ) ;
#167 = ADVANCED_FACE ( 'NONE', ( #688 ), #213, .T. ) ;
#168 = DIRECTION ( 'NONE',  ( 0.5000000000000001110, -0.8660254037844385966, 0.000000000000000000 ) ) ;
#169 = CARTESIAN_POINT ( 'NONE',  ( -25.54774941164087210, 14.75000000000012434, 5.249999999999999112 ) ) ;
#170 = ORIENTED_EDGE ( 'NONE', *, *, #149, .T. ) ;
#171 = DIRECTION ( 'NONE',  ( 1.000000000000000000, 0.000000000000000000, 0.000000000000000000 ) ) ;
#172 = CARTESIAN_POINT ( 'NONE',  ( -18.96223448575294768, 22.59831107200982458, 6.750000000000002665 ) ) ;
#173 = ORIENTED_EDGE ( 'NONE', *, *, #535, .F. ) ;
#174 = DIRECTION ( 'NONE',  ( 0.000000000000000000, 0.000000000000000000, 1.000000000000000000 ) ) ;
#175 = DIRECTION ( 'NONE',  ( 0.3535533905932772836, 0.6123724356957941373, -0.7071067811865462405 ) ) ;
#176 = CONICAL_SURFACE ( 'NONE', #426, 2.999999999999998668, 0.7853981633974492782 ) ;
#177 = VECTOR ( 'NONE', #93, 1000.000000000000000 ) ;
#178 = CARTESIAN_POINT ( 'NONE',  ( -28.45182871386008117, 6.161851725716085859, 4.950000000000008171 ) ) ;
#179 = VECTOR ( 'NONE', #337, 1000.000000000000000 ) ;
#180 = DIRECTION ( 'NONE',  ( -0.000000000000000000, -0.000000000000000000, -1.000000000000000000 ) ) ;
#181 = CARTESIAN_POINT ( 'NONE',  ( -27.55182871386007193, 7.720697452528069604, 6.750000000000002665 ) ) ;
#182 = DIRECTION ( 'NONE',  ( 0.000000000000000000, 0.000000000000000000, -1.000000000000000000 ) ) ;
#183 = CARTESIAN_POINT ( 'NONE',  ( -15.22028960643245554, 26.37560046349702603, 5.250000000000000000 ) ) ;
#184 = EDGE_CURVE ( 'NONE', #507, #250, #444, .T. ) ;
#185 = LINE ( 'NONE', #588, #335 ) ;
#186 = DIRECTION ( 'NONE',  ( 1.914725358886527419E-16, 1.000000000000000000, -0.000000000000000000 ) ) ;
#187 = EDGE_CURVE ( 'NONE', #624, #297, #201, .T. ) ;
#188 = CARTESIAN_POINT ( 'NONE',  ( 0.000000000000000000, 0.000000000000000000, -5.250000000000000000 ) ) ;
#189 = ORIENTED_EDGE ( 'NONE', *, *, #612, .F. ) ;
#190 = CIRCLE ( 'NONE', #414, 1.200000000000002176 ) ;
#191 = AXIS2_PLACEMENT_3D ( 'NONE', #715, #400, #646 ) ;
#192 = EDGE_LOOP ( 'NONE', ( #548, #196, #345, #734 ) ) ;
#193 = EDGE_CURVE ( 'NONE', #507, #753, #425, .T. ) ;
#194 = ORIENTED_EDGE ( 'NONE', *, *, #541, .F. ) ;
#195 = DIRECTION ( 'NONE',  ( 0.000000000000000000, 0.000000000000000000, 1.000000000000000000 ) ) ;
#196 = ORIENTED_EDGE ( 'NONE', *, *, #513, .T. ) ;
#197 = DIRECTION ( 'NONE',  ( 0.5000000000000042188, 0.8660254037844361541, 0.000000000000000000 ) ) ;
#198 = ORIENTED_EDGE ( 'NONE', *, *, #70, .T. ) ;
#199 = AXIS2_PLACEMENT_3D ( 'NONE', #472, #348, #519 ) ;
#200 = AXIS2_PLACEMENT_3D ( 'NONE', #43, #508, #558 ) ;
#201 = CIRCLE ( 'NONE', #225, 1.649999999999994582 ) ;
#202 = EDGE_LOOP ( 'NONE', ( #729, #743 ) ) ;
#203 = DIRECTION ( 'NONE',  ( 0.5000000000000039968, 0.8660254037844363761, 0.000000000000000000 ) ) ;
#204 = EDGE_CURVE ( 'NONE', #143, #498, #437, .T. ) ;
#205 = ADVANCED_FACE ( 'NONE', ( #393 ), #105, .T. ) ;
#206 = ORIENTED_EDGE ( 'NONE', *, *, #526, .T. ) ;
#207 = EDGE_CURVE ( 'NONE', #653, #46, #190, .T. ) ;
#208 = DIRECTION ( 'NONE',  ( 0.000000000000000000, 0.000000000000000000, 1.000000000000000000 ) ) ;
#209 = DIRECTION ( 'NONE',  ( -1.000000000000000000, 0.000000000000000000, 0.000000000000000000 ) ) ;
#210 = VERTEX_POINT ( 'NONE', #705 ) ;
#211 = AXIS2_PLACEMENT_3D ( 'NONE', #406, #471, #108 ) ;
#212 = CARTESIAN_POINT ( 'NONE',  ( 0.000000000000000000, 0.000000000000000000, 5.250000000000000888 ) ) ;
#213 = CYLINDRICAL_SURFACE ( 'NONE', #27, 1.499999999999999556 ) ;
#214 = ORIENTED_EDGE ( 'NONE', *, *, #150, .T. ) ;
#215 = CARTESIAN_POINT ( 'NONE',  ( -25.54774941164087210, 14.75000000000012434, -6.750000000000000888 ) ) ;
#216 = DIRECTION ( 'NONE',  ( 0.000000000000000000, 0.000000000000000000, 1.000000000000000000 ) ) ;
#217 = ORIENTED_EDGE ( 'NONE', *, *, #673, .F. ) ;
#218 = CARTESIAN_POINT ( 'NONE',  ( -29.05182871386008259, 5.122621241174761586, 5.250000000000000000 ) ) ;
#219 = CYLINDRICAL_SURFACE ( 'NONE', #504, 15.99999999999999645 ) ;
#220 = ADVANCED_FACE ( 'NONE', ( #576 ), #176, .F. ) ;
#221 = VERTEX_POINT ( 'NONE', #649 ) ;
#222 = LINE ( 'NONE', #346, #489 ) ;
#223 = CIRCLE ( 'NONE', #465, 16.00000000000000000 ) ;
#224 = CIRCLE ( 'NONE', #657, 1.200000000000001288 ) ;
#225 = AXIS2_PLACEMENT_3D ( 'NONE', #154, #384, #755 ) ;
#226 = ORIENTED_EDGE ( 'NONE', *, *, #526, .F. ) ;
#227 = DIRECTION ( 'NONE',  ( 0.3535533905932770615, 0.6123724356957934711, 0.7071067811865466846 ) ) ;
#228 = CARTESIAN_POINT ( 'NONE',  ( -28.30182871386007903, 6.421659346851410710, 5.250000000000000000 ) ) ;
#229 = ORIENTED_EDGE ( 'NONE', *, *, #303, .T. ) ;
#230 = EDGE_CURVE ( 'NONE', #250, #607, #24, .T. ) ;
#231 = CARTESIAN_POINT ( 'NONE',  ( -19.56223448575295265, 21.55908058746850031, 6.750000000000000888 ) ) ;
#232 = FACE_OUTER_BOUND ( 'NONE', #272, .T. ) ;
#233 = DIRECTION ( 'NONE',  ( 0.5000000000000039968, 0.8660254037844363761, 0.000000000000000000 ) ) ;
#234 = DIRECTION ( 'NONE',  ( -0.8660254037844385966, -0.5000000000000001110, 0.000000000000000000 ) ) ;
#235 = CARTESIAN_POINT ( 'NONE',  ( 0.000000000000000000, 19.87560046349701892, 5.250000000000000000 ) ) ;
#236 = MECHANICAL_DESIGN_GEOMETRIC_PRESENTATION_REPRESENTATION (  '', ( #501 ), #248 ) ;
#237 = DIRECTION ( 'NONE',  ( -1.000000000000000000, 0.000000000000000000, 0.000000000000000000 ) ) ;
#238 = CIRCLE ( 'NONE', #635, 16.00000000000000000 ) ;
#239 = ORIENTED_EDGE ( 'NONE', *, *, #149, .F. ) ;
#240 = FACE_OUTER_BOUND ( 'NONE', #485, .T. ) ;
#241 = CARTESIAN_POINT ( 'NONE',  ( -29.05182871386008259, 5.122621241174761586, 4.950000000000008171 ) ) ;
#242 = ORIENTED_EDGE ( 'NONE', *, *, #396, .F. ) ;
#243 = DIRECTION ( 'NONE',  ( -0.5000000000000038858, -0.8660254037844362651, 0.000000000000000000 ) ) ;
#244 = DIRECTION ( 'NONE',  ( 1.000000000000000000, -1.914725358886527419E-16, 0.000000000000000000 ) ) ;
#245 = EDGE_CURVE ( 'NONE', #46, #257, #292, .T. ) ;
#246 = PLANE ( 'NONE',  #139 ) ;
#247 = DIRECTION ( 'NONE',  ( 1.000000000000000000, 0.000000000000000000, 0.000000000000000000 ) ) ;
#248 =( GEOMETRIC_REPRESENTATION_CONTEXT ( 3 ) GLOBAL_UNCERTAINTY_ASSIGNED_CONTEXT ( ( #144 ) ) GLOBAL_UNIT_ASSIGNED_CONTEXT ( ( #371, #731, #307 ) ) REPRESENTATION_CONTEXT ( 'NONE', 'WORKASPACE' ) );
#249 = AXIS2_PLACEMENT_3D ( 'NONE', #679, #325, #152 ) ;
#250 = VERTEX_POINT ( 'NONE', #477 ) ;
#251 = DIRECTION ( 'NONE',  ( 1.000000000000000000, 0.000000000000000000, 0.000000000000000000 ) ) ;
#252 = ORIENTED_EDGE ( 'NONE', *, *, #303, .F. ) ;
#253 = DIRECTION ( 'NONE',  ( -0.000000000000000000, -0.000000000000000000, -1.000000000000000000 ) ) ;
#254 = EDGE_LOOP ( 'NONE', ( #252, #317, #305, #601, #289, #355, #567, #32, #341, #14 ) ) ;
#255 = FACE_BOUND ( 'NONE', #202, .T. ) ;
#256 = AXIS2_PLACEMENT_3D ( 'NONE', #293, #769, #233 ) ;
#257 = VERTEX_POINT ( 'NONE', #228 ) ;
#258 = APPLICATION_PROTOCOL_DEFINITION ( 'draft international standard', 'automotive_design', 1998, #750 ) ;
#259 = AXIS2_PLACEMENT_3D ( 'NONE', #409, #532, #585 ) ;
#260 = ADVANCED_FACE ( 'NONE', ( #651 ), #632, .F. ) ;
#261 = AXIS2_PLACEMENT_3D ( 'NONE', #648, #525, #350 ) ;
#262 = PRESENTATION_STYLE_ASSIGNMENT (( #724 ) ) ;
#263 = EDGE_CURVE ( 'NONE', #297, #624, #76, .T. ) ;
#264 = ORIENTED_EDGE ( 'NONE', *, *, #416, .F. ) ;
#265 = CARTESIAN_POINT ( 'NONE',  ( -22.84194004145702905, -13.18780023174851301, -5.249999999999999112 ) ) ;
#266 = LINE ( 'NONE', #572, #634 ) ;
#267 = DIRECTION ( 'NONE',  ( 1.000000000000000000, 0.000000000000000000, 0.000000000000000000 ) ) ;
#268 = ORIENTED_EDGE ( 'NONE', *, *, #128, .T. ) ;
#269 = DIRECTION ( 'NONE',  ( 0.5000000000000044409, 0.8660254037844361541, 0.000000000000000000 ) ) ;
#270 = CYLINDRICAL_SURFACE ( 'NONE', #531, 1.200000000000002842 ) ;
#271 = CARTESIAN_POINT ( 'NONE',  ( -22.84194004145702905, -13.18780023174851301, 5.250000000000000000 ) ) ;
#272 = EDGE_LOOP ( 'NONE', ( #28, #670, #589, #331 ) ) ;
#273 = AXIS2_PLACEMENT_3D ( 'NONE', #482, #484, #608 ) ;
#274 = VECTOR ( 'NONE', #47, 1000.000000000000000 ) ;
#275 = CARTESIAN_POINT ( 'NONE',  ( -16.52495863638344176, 25.63543918223006202, 5.250000000000000000 ) ) ;
#276 = CARTESIAN_POINT ( 'NONE',  ( 0.000000000000000000, 0.000000000000000000, -5.250000000000000000 ) ) ;
#277 = ORIENTED_EDGE ( 'NONE', *, *, #204, .F. ) ;
#278 = DIRECTION ( 'NONE',  ( 0.5000000000000044409, 0.8660254037844360431, 0.000000000000000000 ) ) ;
#279 = EDGE_LOOP ( 'NONE', ( #18, #110, #365, #528 ) ) ;
#280 = CARTESIAN_POINT ( 'NONE',  ( -15.22028960643245554, 26.37560046349702603, 5.250000000000000000 ) ) ;
#281 = VERTEX_POINT ( 'NONE', #48 ) ;
#282 = EDGE_CURVE ( 'NONE', #394, #281, #185, .T. ) ;
#283 = CYLINDRICAL_SURFACE ( 'NONE', #16, 32.00000000000000000 ) ;
#284 = AXIS2_PLACEMENT_3D ( 'NONE', #235, #253, #309 ) ;
#285 = CIRCLE ( 'NONE', #517, 1.500000000000001332 ) ;
#286 = ADVANCED_FACE ( 'NONE', ( #232 ), #404, .F. ) ;
#287 = DIRECTION ( 'NONE',  ( 0.000000000000000000, 0.000000000000000000, 1.000000000000000000 ) ) ;
#288 = EDGE_CURVE ( 'NONE', #221, #653, #112, .T. ) ;
#289 = ORIENTED_EDGE ( 'NONE', *, *, #757, .T. ) ;
#290 = ADVANCED_FACE ( 'NONE', ( #123 ), #59, .F. ) ;
#291 = LINE ( 'NONE', #231, #274 ) ;
#292 = LINE ( 'NONE', #181, #15 ) ;
#293 = CARTESIAN_POINT ( 'NONE',  ( -25.54774941164087210, 14.75000000000012434, -6.750000000000000888 ) ) ;
#294 = EDGE_LOOP ( 'NONE', ( #136, #438, #69, #674 ) ) ;
#295 = PLANE ( 'NONE',  #439 ) ;
#296 = CARTESIAN_POINT ( 'NONE',  ( 0.000000000000000000, 19.87560046349701892, -5.250000000000000000 ) ) ;
#297 = VERTEX_POINT ( 'NONE', #56 ) ;
#298 = CARTESIAN_POINT ( 'NONE',  ( -17.46223448575293347, 25.19638728336313349, 6.750000000000002665 ) ) ;
#299 = CARTESIAN_POINT ( 'NONE',  ( -23.97274941164085860, 17.47798002192110189, -6.750000000000000888 ) ) ;
#300 = AXIS2_PLACEMENT_3D ( 'NONE', #329, #561, #34 ) ;
#301 = VERTEX_POINT ( 'NONE', #719 ) ;
#302 = VECTOR ( 'NONE', #565, 1000.000000000000000 ) ;
#303 = EDGE_CURVE ( 'NONE', #560, #455, #643, .T. ) ;
#304 = FACE_BOUND ( 'NONE', #661, .T. ) ;
#305 = ORIENTED_EDGE ( 'NONE', *, *, #468, .F. ) ;
#306 =( NAMED_UNIT ( * ) PLANE_ANGLE_UNIT ( ) SI_UNIT ( $, .RADIAN. ) );
#307 =( NAMED_UNIT ( * ) SI_UNIT ( $, .STERADIAN. ) SOLID_ANGLE_UNIT ( ) );
#308 = ORIENTED_EDGE ( 'NONE', *, *, #716, .T. ) ;
#309 = DIRECTION ( 'NONE',  ( 1.000000000000000000, 0.000000000000000000, 0.000000000000000000 ) ) ;
#310 = AXIS2_PLACEMENT_3D ( 'NONE', #188, #527, #702 ) ;
#311 = AXIS2_PLACEMENT_3D ( 'NONE', #610, #740, #475 ) ;
#312 = ORIENTED_EDGE ( 'NONE', *, *, #376, .F. ) ;
#313 = SURFACE_STYLE_FILL_AREA ( #68 ) ;
#314 = VERTEX_POINT ( 'NONE', #358 ) ;
#315 = CARTESIAN_POINT ( 'NONE',  ( -30.46342088717392826, 1.493314384480073587, 5.250000000000000000 ) ) ;
#316 = CARTESIAN_POINT ( 'NONE',  ( -17.21277491685817651, -9.937800231748518343, 5.250000000000000000 ) ) ;
#317 = ORIENTED_EDGE ( 'NONE', *, *, #153, .T. ) ;
#318 = DIRECTION ( 'NONE',  ( 0.000000000000000000, 0.000000000000000000, 1.000000000000000000 ) ) ;
#319 = EDGE_CURVE ( 'NONE', #607, #624, #581, .T. ) ;
#320 = CARTESIAN_POINT ( 'NONE',  ( -15.02495863638344176, 25.63543918223006202, -5.250000000000000000 ) ) ;
#321 = CIRCLE ( 'NONE', #760, 1.499999999999994893 ) ;
#322 = ORIENTED_EDGE ( 'NONE', *, *, #716, .F. ) ;
#323 = CIRCLE ( 'NONE', #566, 1.499999999999995559 ) ;
#324 = CONICAL_SURFACE ( 'NONE', #764, 3.000000000000000000, 0.7853981633974492782 ) ;
#325 = DIRECTION ( 'NONE',  ( 0.000000000000000000, 0.000000000000000000, -1.000000000000000000 ) ) ;
#326 = ADVANCED_FACE ( 'NONE', ( #53, #64, #304, #7 ), #458, .F. ) ;
#327 = CARTESIAN_POINT ( 'NONE',  ( -15.10853361040772036, 25.14173872062437098, 5.250000000000000000 ) ) ;
#328 = ORIENTED_EDGE ( 'NONE', *, *, #396, .T. ) ;
#329 = CARTESIAN_POINT ( 'NONE',  ( 0.000000000000000000, 19.87560046349701892, 5.250000000000000000 ) ) ;
#330 = LINE ( 'NONE', #333, #87 ) ;
#331 = ORIENTED_EDGE ( 'NONE', *, *, #207, .T. ) ;
#332 = DIRECTION ( 'NONE',  ( 0.5000000000000044409, 0.8660254037844361541, 0.000000000000000000 ) ) ;
#333 = CARTESIAN_POINT ( 'NONE',  ( -29.32765123257543394, 0.5135045602319074920, 5.250000000000000000 ) ) ;
#334 = EDGE_LOOP ( 'NONE', ( #550, #198 ) ) ;
#335 = VECTOR ( 'NONE', #244, 1000.000000000000000 ) ;
#336 = CARTESIAN_POINT ( 'NONE',  ( -11.87989728545210966, 9.157949578759842169, -5.250000000000000888 ) ) ;
#337 = DIRECTION ( 'NONE',  ( 0.5000000000000001110, -0.8660254037844385966, 0.000000000000000000 ) ) ;
#338 = VERTEX_POINT ( 'NONE', #772 ) ;
#339 = DIRECTION ( 'NONE',  ( -1.000000000000000000, 0.000000000000000000, 0.000000000000000000 ) ) ;
#340 = DIRECTION ( 'NONE',  ( 0.000000000000000000, 0.000000000000000000, 1.000000000000000000 ) ) ;
#341 = ORIENTED_EDGE ( 'NONE', *, *, #654, .T. ) ;
#342 = EDGE_CURVE ( 'NONE', #80, #131, #618, .T. ) ;
#343 = ADVANCED_FACE ( 'NONE', ( #551, #255, #420, #486 ), #373, .F. ) ;
#344 = CARTESIAN_POINT ( 'NONE',  ( -29.05182871386008259, 5.122621241174761586, 6.750000000000000888 ) ) ;
#345 = ORIENTED_EDGE ( 'NONE', *, *, #67, .F. ) ;
#346 = CARTESIAN_POINT ( 'NONE',  ( -11.87989728545211143, 9.157949578759840392, -4.052739477364918130 ) ) ;
#347 = VECTOR ( 'NONE', #227, 1000.000000000000114 ) ;
#348 = DIRECTION ( 'NONE',  ( 0.000000000000000000, 0.000000000000000000, 1.000000000000000000 ) ) ;
#349 = CARTESIAN_POINT ( 'NONE',  ( -24.94774941164086712, 15.78923048454145039, -6.750000000000000888 ) ) ;
#350 = DIRECTION ( 'NONE',  ( -0.5000000000000051070, -0.8660254037844358210, 0.000000000000000000 ) ) ;
#351 = CARTESIAN_POINT ( 'NONE',  ( -29.65182871386009111, 4.083390756633437313, 6.750000000000000888 ) ) ;
#352 = CARTESIAN_POINT ( 'NONE',  ( 5.050203106331699892E-15, 26.37560046349702247, 6.750000000000000888 ) ) ;
#353 = CARTESIAN_POINT ( 'NONE',  ( -18.96223448575294768, 22.59831107200982458, 5.250000000000000000 ) ) ;
#354 = DIRECTION ( 'NONE',  ( -0.5000000000000051070, -0.8660254037844358210, 0.000000000000000000 ) ) ;
#355 = ORIENTED_EDGE ( 'NONE', *, *, #146, .F. ) ;
#356 = ADVANCED_FACE ( 'NONE', ( #19 ), #361, .T. ) ;
#357 = CARTESIAN_POINT ( 'NONE',  ( 0.000000000000000000, 0.000000000000000000, -18.85547895472983626 ) ) ;
#358 = CARTESIAN_POINT ( 'NONE',  ( -15.02495863638344176, 25.63543918223006202, 5.250000000000000000 ) ) ;
#359 = CARTESIAN_POINT ( 'NONE',  ( -16.52495863638344176, 25.63543918223006202, -5.250000000000000000 ) ) ;
#360 = LINE ( 'NONE', #625, #748 ) ;
#361 = CYLINDRICAL_SURFACE ( 'NONE', #367, 1.499999999999999556 ) ;
#362 = DIRECTION ( 'NONE',  ( -1.000000000000000000, 1.914725358886527419E-16, 0.000000000000000000 ) ) ;
#363 = EDGE_CURVE ( 'NONE', #85, #46, #81, .T. ) ;
#364 = PRODUCT_RELATED_PRODUCT_CATEGORY ( 'part', '', ( #713 ) ) ;
#365 = ORIENTED_EDGE ( 'NONE', *, *, #480, .F. ) ;
#366 = DIRECTION ( 'NONE',  ( 0.000000000000000000, 0.000000000000000000, 1.000000000000000000 ) ) ;
#367 = AXIS2_PLACEMENT_3D ( 'NONE', #671, #129, #606 ) ;
#368 = CIRCLE ( 'NONE', #427, 1.499999999999999556 ) ;
#369 = VERTEX_POINT ( 'NONE', #11 ) ;
#370 = CONICAL_SURFACE ( 'NONE', #256, 3.150000000000002576, 0.7853981633974500554 ) ;
#371 =( LENGTH_UNIT ( ) NAMED_UNIT ( * ) SI_UNIT ( .MILLI., .METRE. ) );
#372 = ORIENTED_EDGE ( 'NONE', *, *, #591, .T. ) ;
#373 = PLANE ( 'NONE',  #273 ) ;
#374 = VERTEX_POINT ( 'NONE', #413 ) ;
#375 = CARTESIAN_POINT ( 'NONE',  ( 0.000000000000000000, 0.000000000000000000, 0.000000000000000000 ) ) ;
#376 = EDGE_CURVE ( 'NONE', #131, #314, #552, .T. ) ;
#377 = FACE_OUTER_BOUND ( 'NONE', #770, .T. ) ;
#378 = CARTESIAN_POINT ( 'NONE',  ( -29.05182871386008259, 5.122621241174761586, 5.250000000000000000 ) ) ;
#379 = VECTOR ( 'NONE', #175, 999.9999999999998863 ) ;
#380 = ORIENTED_EDGE ( 'NONE', *, *, #342, .T. ) ;
#381 = DIRECTION ( 'NONE',  ( 0.000000000000000000, 0.000000000000000000, 1.000000000000000000 ) ) ;
#382 = CIRCLE ( 'NONE', #466, 1.200000000000002842 ) ;
#383 = DIRECTION ( 'NONE',  ( -0.3535533905932772281, -0.6123724356957941373, -0.7071067811865462405 ) ) ;
#384 = DIRECTION ( 'NONE',  ( 0.000000000000000000, 0.000000000000000000, 1.000000000000000000 ) ) ;
#385 = VERTEX_POINT ( 'NONE', #320 ) ;
#386 = LINE ( 'NONE', #745, #138 ) ;
#387 = EDGE_LOOP ( 'NONE', ( #277, #103, #308, #217 ) ) ;
#388 = DIRECTION ( 'NONE',  ( 0.000000000000000000, 0.000000000000000000, 1.000000000000000000 ) ) ;
#389 = ORIENTED_EDGE ( 'NONE', *, *, #363, .T. ) ;
#390 = AXIS2_PLACEMENT_3D ( 'NONE', #353, #122, #522 ) ;
#391 = FACE_OUTER_BOUND ( 'NONE', #134, .T. ) ;
#392 = ADVANCED_FACE ( 'NONE', ( #21 ), #418, .F. ) ;
#393 = FACE_OUTER_BOUND ( 'NONE', #434, .T. ) ;
#394 = VERTEX_POINT ( 'NONE', #492 ) ;
#395 = EDGE_CURVE ( 'NONE', #455, #106, #223, .T. ) ;
#396 = EDGE_CURVE ( 'NONE', #766, #720, #578, .T. ) ;
#397 = DIRECTION ( 'NONE',  ( -1.000000000000000000, 0.000000000000000000, 0.000000000000000000 ) ) ;
#398 = DIRECTION ( 'NONE',  ( 0.000000000000000000, 0.000000000000000000, 1.000000000000000000 ) ) ;
#399 = ORIENTED_EDGE ( 'NONE', *, *, #44, .T. ) ;
#400 = DIRECTION ( 'NONE',  ( 0.000000000000000000, 0.000000000000000000, -1.000000000000000000 ) ) ;
#401 = VERTEX_POINT ( 'NONE', #424 ) ;
#402 = UNCERTAINTY_MEASURE_WITH_UNIT (LENGTH_MEASURE( 1.000000000000000082E-05 ), #735, 'distance_accuracy_value', 'NONE');
#403 = LINE ( 'NONE', #704, #708 ) ;
#404 = CYLINDRICAL_SURFACE ( 'NONE', #450, 1.200000000000001288 ) ;
#405 = CARTESIAN_POINT ( 'NONE',  ( 0.000000000000000000, 19.87560046349701892, 5.250000000000000000 ) ) ;
#406 = CARTESIAN_POINT ( 'NONE',  ( -18.96223448575294768, 22.59831107200982458, -5.249999999999999112 ) ) ;
#407 = DIRECTION ( 'NONE',  ( 0.000000000000000000, 0.000000000000000000, 1.000000000000000000 ) ) ;
#408 = FACE_OUTER_BOUND ( 'NONE', #524, .T. ) ;
#409 = CARTESIAN_POINT ( 'NONE',  ( -25.54774941164087210, 14.75000000000012434, -5.250000000000000000 ) ) ;
#410 = ORIENTED_EDGE ( 'NONE', *, *, #67, .T. ) ;
#411 = ORIENTED_EDGE ( 'NONE', *, *, #84, .F. ) ;
#412 = CARTESIAN_POINT ( 'NONE',  ( -29.32765123257543394, 0.5135045602319091573, 5.250000000000000000 ) ) ;
#413 = CARTESIAN_POINT ( 'NONE',  ( -18.11981512571183828, 26.37560046349702603, 5.250000000000000000 ) ) ;
#414 = AXIS2_PLACEMENT_3D ( 'NONE', #241, #467, #595 ) ;
#415 = ORIENTED_EDGE ( 'NONE', *, *, #699, .T. ) ;
#416 = EDGE_CURVE ( 'NONE', #143, #401, #132, .T. ) ;
#417 = EDGE_CURVE ( 'NONE', #659, #703, #323, .T. ) ;
#418 = CYLINDRICAL_SURFACE ( 'NONE', #37, 1.200000000000001288 ) ;
#419 = ORIENTED_EDGE ( 'NONE', *, *, #761, .F. ) ;
#420 = FACE_BOUND ( 'NONE', #604, .T. ) ;
#421 = CARTESIAN_POINT ( 'NONE',  ( -13.87096562450908088, 5.709318054171392376, -5.249999999999996447 ) ) ;
#422 = ORIENTED_EDGE ( 'NONE', *, *, #675, .T. ) ;
#423 = MANIFOLD_SOLID_BREP ( 'CirPattern9[12]', #590 ) ;
#424 = CARTESIAN_POINT ( 'NONE',  ( -18.36223448575293915, 23.63754155655114886, 4.950000000000008171 ) ) ;
#425 = CIRCLE ( 'NONE', #605, 1.200000000000002842 ) ;
#426 = AXIS2_PLACEMENT_3D ( 'NONE', #172, #537, #710 ) ;
#427 = AXIS2_PLACEMENT_3D ( 'NONE', #275, #208, #157 ) ;
#428 = ORIENTED_EDGE ( 'NONE', *, *, #187, .F. ) ;
#429 = CIRCLE ( 'NONE', #515, 32.00000000000000000 ) ;
#430 = EDGE_CURVE ( 'NONE', #46, #653, #680, .T. ) ;
#431 = ORIENTED_EDGE ( 'NONE', *, *, #557, .T. ) ;
#432 = FACE_OUTER_BOUND ( 'NONE', #71, .T. ) ;
#433 = DIRECTION ( 'NONE',  ( -0.000000000000000000, -0.000000000000000000, -1.000000000000000000 ) ) ;
#434 = EDGE_LOOP ( 'NONE', ( #242, #621, #189, #582 ) ) ;
#435 = CARTESIAN_POINT ( 'NONE',  ( -30.45208484467325150, -0.006642779621762393005, 5.250000000000000000 ) ) ;
#436 = CARTESIAN_POINT ( 'NONE',  ( -13.87096562450908266, 5.709318054171393264, -4.052739477364918130 ) ) ;
#437 = CIRCLE ( 'NONE', #137, 1.200000000000002842 ) ;
#438 = ORIENTED_EDGE ( 'NONE', *, *, #245, .T. ) ;
#439 = AXIS2_PLACEMENT_3D ( 'NONE', #771, #234, #168 ) ;
#440 = CARTESIAN_POINT ( 'NONE',  ( -18.96223448575294768, 22.59831107200982458, 6.750000000000002665 ) ) ;
#441 = DIRECTION ( 'NONE',  ( -0.000000000000000000, -0.000000000000000000, -1.000000000000000000 ) ) ;
#442 = ORIENTED_EDGE ( 'NONE', *, *, #757, .F. ) ;
#443 = DIRECTION ( 'NONE',  ( 0.5000000000000044409, 0.8660254037844361541, 0.000000000000000000 ) ) ;
#444 = LINE ( 'NONE', #573, #556 ) ;
#445 = ORIENTED_EDGE ( 'NONE', *, *, #12, .T. ) ;
#446 = CARTESIAN_POINT ( 'NONE',  ( -25.54774941164087210, 14.75000000000012434, -6.750000000000000888 ) ) ;
#447 = DIRECTION ( 'NONE',  ( 0.000000000000000000, 0.000000000000000000, 1.000000000000000000 ) ) ;
#448 = ADVANCED_FACE ( 'NONE', ( #505 ), #516, .F. ) ;
#449 = EDGE_LOOP ( 'NONE', ( #637, #534, #470, #487 ) ) ;
#450 = AXIS2_PLACEMENT_3D ( 'NONE', #344, #120, #354 ) ;
#451 = VECTOR ( 'NONE', #160, 1000.000000000000000 ) ;
#452 = LINE ( 'NONE', #183, #90 ) ;
#453 = VECTOR ( 'NONE', #737, 1000.000000000000000 ) ;
#454 = LINE ( 'NONE', #623, #302 ) ;
#455 = VERTEX_POINT ( 'NONE', #145 ) ;
#456 = ADVANCED_FACE ( 'NONE', ( #432 ), #676, .F. ) ;
#457 = LINE ( 'NONE', #460, #694 ) ;
#458 = PLANE ( 'NONE',  #310 ) ;
#459 = VERTEX_POINT ( 'NONE', #280 ) ;
#460 = CARTESIAN_POINT ( 'NONE',  ( -30.55182871386009680, 2.524545029821452680, 6.750000000000002665 ) ) ;
#461 = DIRECTION ( 'NONE',  ( -0.000000000000000000, -0.000000000000000000, -1.000000000000000000 ) ) ;
#462 = CARTESIAN_POINT ( 'NONE',  ( -18.96223448575294768, 22.59831107200982458, 4.950000000000008171 ) ) ;
#463 = ORIENTED_EDGE ( 'NONE', *, *, #535, .T. ) ;
#464 = CARTESIAN_POINT ( 'NONE',  ( -29.05182871386008259, 5.122621241174761586, -5.249999999999999112 ) ) ;
#465 = AXIS2_PLACEMENT_3D ( 'NONE', #599, #140, #251 ) ;
#466 = AXIS2_PLACEMENT_3D ( 'NONE', #29, #718, #269 ) ;
#467 = DIRECTION ( 'NONE',  ( 0.000000000000000000, 0.000000000000000000, 1.000000000000000000 ) ) ;
#468 = EDGE_CURVE ( 'NONE', #51, #82, #88, .T. ) ;
#469 = FACE_OUTER_BOUND ( 'NONE', #118, .T. ) ;
#470 = ORIENTED_EDGE ( 'NONE', *, *, #153, .F. ) ;
#471 = DIRECTION ( 'NONE',  ( 0.000000000000000000, 0.000000000000000000, 1.000000000000000000 ) ) ;
#472 = CARTESIAN_POINT ( 'NONE',  ( -18.96223448575294768, 22.59831107200982458, 6.750000000000000888 ) ) ;
#473 = EDGE_LOOP ( 'NONE', ( #698, #662 ) ) ;
#474 = APPLICATION_CONTEXT ( 'automotive_design' ) ;
#475 = DIRECTION ( 'NONE',  ( -0.5000000000000044409, -0.8660254037844361541, 0.000000000000000000 ) ) ;
#476 = EDGE_CURVE ( 'NONE', #75, #257, #593, .T. ) ;
#477 = CARTESIAN_POINT ( 'NONE',  ( -26.14774941164088062, 13.71076951545879830, -4.800000000000008704 ) ) ;
#478 = EDGE_CURVE ( 'NONE', #600, #210, #114, .T. ) ;
#479 = ORIENTED_EDGE ( 'NONE', *, *, #146, .T. ) ;
#480 = EDGE_CURVE ( 'NONE', #459, #374, #687, .T. ) ;
#481 = VECTOR ( 'NONE', #142, 1000.000000000000000 ) ;
#482 = CARTESIAN_POINT ( 'NONE',  ( 0.000000000000000000, 0.000000000000000000, 5.250000000000000000 ) ) ;
#483 = AXIS2_PLACEMENT_3D ( 'NONE', #215, #30, #203 ) ;
#484 = DIRECTION ( 'NONE',  ( 0.000000000000000000, 0.000000000000000000, -1.000000000000000000 ) ) ;
#485 = EDGE_LOOP ( 'NONE', ( #214, #479, #642, #463 ) ) ;
#486 = FACE_OUTER_BOUND ( 'NONE', #570, .T. ) ;
#487 = ORIENTED_EDGE ( 'NONE', *, *, #672, .F. ) ;
#488 = AXIS2_PLACEMENT_3D ( 'NONE', #41, #495, #564 ) ;
#489 = VECTOR ( 'NONE', #58, 1000.000000000000000 ) ;
#490 = ORIENTED_EDGE ( 'NONE', *, *, #616, .F. ) ;
#491 = CARTESIAN_POINT ( 'NONE',  ( -24.94774941164086712, 15.78923048454145039, 5.249999999999999112 ) ) ;
#492 = CARTESIAN_POINT ( 'NONE',  ( -18.11981512571183828, 26.37560046349702603, -5.249999999999999112 ) ) ;
#493 = CARTESIAN_POINT ( 'NONE',  ( -20.46223448575295834, 20.00023486065651568, 6.750000000000002665 ) ) ;
#494 = EDGE_LOOP ( 'NONE', ( #124, #141, #428, #554 ) ) ;
#495 = DIRECTION ( 'NONE',  ( -0.000000000000000000, -0.000000000000000000, -1.000000000000000000 ) ) ;
#496 = DIRECTION ( 'NONE',  ( -0.000000000000000000, -0.000000000000000000, -1.000000000000000000 ) ) ;
#497 = ADVANCED_FACE ( 'NONE', ( #377 ), #270, .F. ) ;
#498 = VERTEX_POINT ( 'NONE', #751 ) ;
#499 = CYLINDRICAL_SURFACE ( 'NONE', #200, 1.200000000000002842 ) ;
#500 = LINE ( 'NONE', #91, #102 ) ;
#501 = STYLED_ITEM ( 'NONE', ( #262 ), #423 ) ;
#502 = ORIENTED_EDGE ( 'NONE', *, *, #230, .T. ) ;
#503 = AXIS2_PLACEMENT_3D ( 'NONE', #375, #555, #614 ) ;
#504 = AXIS2_PLACEMENT_3D ( 'NONE', #512, #627, #209 ) ;
#505 = FACE_OUTER_BOUND ( 'NONE', #96, .T. ) ;
#506 = DIRECTION ( 'NONE',  ( 1.000000000000000000, 0.000000000000000000, 0.000000000000000000 ) ) ;
#507 = VERTEX_POINT ( 'NONE', #617 ) ;
#508 = DIRECTION ( 'NONE',  ( 0.000000000000000000, 0.000000000000000000, -1.000000000000000000 ) ) ;
#509 = DIRECTION ( 'NONE',  ( 0.000000000000000000, 0.000000000000000000, -1.000000000000000000 ) ) ;
#510 = ORIENTED_EDGE ( 'NONE', *, *, #654, .F. ) ;
#511 = CARTESIAN_POINT ( 'NONE',  ( -25.54774941164087210, 14.75000000000012434, 5.249999999999999112 ) ) ;
#512 = CARTESIAN_POINT ( 'NONE',  ( -17.21277491685817651, -9.937800231748518343, 5.250000000000000000 ) ) ;
#513 = EDGE_CURVE ( 'NONE', #82, #600, #629, .T. ) ;
#514 = EDGE_LOOP ( 'NONE', ( #597, #422 ) ) ;
#515 = AXIS2_PLACEMENT_3D ( 'NONE', #276, #340, #506 ) ;
#516 = CONICAL_SURFACE ( 'NONE', #730, 2.999999999999998668, 0.7853981633974492782 ) ;
#517 = AXIS2_PLACEMENT_3D ( 'NONE', #119, #584, #714 ) ;
#518 = DIRECTION ( 'NONE',  ( -0.000000000000000000, -0.000000000000000000, 1.000000000000000000 ) ) ;
#519 = DIRECTION ( 'NONE',  ( -0.5000000000000044409, -0.8660254037844361541, 0.000000000000000000 ) ) ;
#520 = ORIENTED_EDGE ( 'NONE', *, *, #288, .F. ) ;
#521 = ADVANCED_BREP_SHAPE_REPRESENTATION ( '3x_carrier_spacer', ( #423, #503 ), #39 ) ;
#522 = DIRECTION ( 'NONE',  ( 0.5000000000000042188, 0.8660254037844361541, 0.000000000000000000 ) ) ;
#523 = CARTESIAN_POINT ( 'NONE',  ( -30.46342088717392826, 1.493314384480073587, 5.250000000000000000 ) ) ;
#524 = EDGE_LOOP ( 'NONE', ( #126, #20, #739, #147 ) ) ;
#525 = DIRECTION ( 'NONE',  ( 0.000000000000000000, 0.000000000000000000, 1.000000000000000000 ) ) ;
#526 = EDGE_CURVE ( 'NONE', #314, #459, #368, .T. ) ;
#527 = DIRECTION ( 'NONE',  ( 0.000000000000000000, 0.000000000000000000, 1.000000000000000000 ) ) ;
#528 = ORIENTED_EDGE ( 'NONE', *, *, #615, .F. ) ;
#529 = ORIENTED_EDGE ( 'NONE', *, *, #591, .F. ) ;
#530 = CARTESIAN_POINT ( 'NONE',  ( -13.87096562450908088, 5.709318054171392376, 5.250000000000000000 ) ) ;
#531 = AXIS2_PLACEMENT_3D ( 'NONE', #741, #104, #36 ) ;
#532 = DIRECTION ( 'NONE',  ( 0.000000000000000000, 0.000000000000000000, 1.000000000000000000 ) ) ;
#533 = CIRCLE ( 'NONE', #127, 15.00000000000000000 ) ;
#534 = ORIENTED_EDGE ( 'NONE', *, *, #513, .F. ) ;
#535 = EDGE_CURVE ( 'NONE', #301, #374, #579, .T. ) ;
#536 = ADVANCED_FACE ( 'NONE', ( #89 ), #101, .F. ) ;
#537 = DIRECTION ( 'NONE',  ( 0.000000000000000000, 0.000000000000000000, 1.000000000000000000 ) ) ;
#538 = ADVANCED_FACE ( 'NONE', ( #391 ), #499, .F. ) ;
#539 = ORIENTED_EDGE ( 'NONE', *, *, #673, .T. ) ;
#540 = CARTESIAN_POINT ( 'NONE',  ( -16.52495863638344176, 25.63543918223006202, 5.250000000000000000 ) ) ;
#541 = EDGE_CURVE ( 'NONE', #250, #297, #266, .T. ) ;
#542 = ORIENTED_EDGE ( 'NONE', *, *, #615, .T. ) ;
#543 = VECTOR ( 'NONE', #287, 1000.000000000000000 ) ;
#544 = CARTESIAN_POINT ( 'NONE',  ( -18.36223448575293915, 23.63754155655114886, 6.750000000000000888 ) ) ;
#545 = AXIS2_PLACEMENT_3D ( 'NONE', #212, #690, #339 ) ;
#546 = CARTESIAN_POINT ( 'NONE',  ( -29.80182871386008969, 3.823583135498112018, 5.250000000000000000 ) ) ;
#547 = ORIENTED_EDGE ( 'NONE', *, *, #44, .F. ) ;
#548 = ORIENTED_EDGE ( 'NONE', *, *, #468, .T. ) ;
#549 = DIRECTION ( 'NONE',  ( 0.000000000000000000, -0.000000000000000000, -1.000000000000000000 ) ) ;
#550 = ORIENTED_EDGE ( 'NONE', *, *, #476, .T. ) ;
#551 = FACE_BOUND ( 'NONE', #334, .T. ) ;
#552 = CIRCLE ( 'NONE', #620, 1.499999999999999556 ) ;
#553 = CIRCLE ( 'NONE', #62, 1.500000000000001332 ) ;
#554 = ORIENTED_EDGE ( 'NONE', *, *, #319, .F. ) ;
#555 = DIRECTION ( 'NONE',  ( 0.000000000000000000, 0.000000000000000000, 1.000000000000000000 ) ) ;
#556 = VECTOR ( 'NONE', #509, 1000.000000000000000 ) ;
#557 = EDGE_CURVE ( 'NONE', #301, #686, #386, .T. ) ;
#558 = DIRECTION ( 'NONE',  ( 0.5000000000000044409, 0.8660254037844361541, 0.000000000000000000 ) ) ;
#559 = EDGE_CURVE ( 'NONE', #753, #507, #723, .T. ) ;
#560 = VERTEX_POINT ( 'NONE', #336 ) ;
#561 = DIRECTION ( 'NONE',  ( -0.000000000000000000, -0.000000000000000000, -1.000000000000000000 ) ) ;
#562 = FACE_OUTER_BOUND ( 'NONE', #192, .T. ) ;
#563 = ORIENTED_EDGE ( 'NONE', *, *, #700, .F. ) ;
#564 = DIRECTION ( 'NONE',  ( 1.000000000000000000, 0.000000000000000000, 0.000000000000000000 ) ) ;
#565 = DIRECTION ( 'NONE',  ( 0.000000000000000000, 0.000000000000000000, 1.000000000000000000 ) ) ;
#566 = AXIS2_PLACEMENT_3D ( 'NONE', #728, #549, #197 ) ;
#567 = ORIENTED_EDGE ( 'NONE', *, *, #282, .T. ) ;
#568 = LINE ( 'NONE', #298, #347 ) ;
#569 = LINE ( 'NONE', #271, #179 ) ;
#570 = EDGE_LOOP ( 'NONE', ( #410, #677, #1, #380, #166, #206, #8, #173, #170, #328 ) ) ;
#571 = ADVANCED_FACE ( 'NONE', ( #94 ), #99, .F. ) ;
#572 = CARTESIAN_POINT ( 'NONE',  ( -27.12274941164088560, 12.02201997807914857, -6.750000000000000888 ) ) ;
#573 = CARTESIAN_POINT ( 'NONE',  ( -26.14774941164088062, 13.71076951545880007, -6.750000000000000888 ) ) ;
#574 = ORIENTED_EDGE ( 'NONE', *, *, #193, .F. ) ;
#575 = FACE_OUTER_BOUND ( 'NONE', #449, .T. ) ;
#576 = FACE_OUTER_BOUND ( 'NONE', #577, .T. ) ;
#577 = EDGE_LOOP ( 'NONE', ( #529, #547, #42, #490 ) ) ;
#578 = CIRCLE ( 'NONE', #656, 1.500000000000001332 ) ;
#579 = CIRCLE ( 'NONE', #249, 32.00000000000000000 ) ;
#580 = CARTESIAN_POINT ( 'NONE',  ( -24.72274941164086570, 16.17894191624444034, -5.250000000000000000 ) ) ;
#581 = LINE ( 'NONE', #299, #379 ) ;
#582 = ORIENTED_EDGE ( 'NONE', *, *, #107, .F. ) ;
#583 = PRODUCT_DEFINITION ( 'UNKNOWN', '', #77, #156 ) ;
#584 = DIRECTION ( 'NONE',  ( 0.000000000000000000, 0.000000000000000000, -1.000000000000000000 ) ) ;
#585 = DIRECTION ( 'NONE',  ( -0.5000000000000033307, -0.8660254037844368202, 0.000000000000000000 ) ) ;
#586 = ORIENTED_EDGE ( 'NONE', *, *, #263, .F. ) ;
#587 = CARTESIAN_POINT ( 'NONE',  ( -19.71223448575295123, 21.29927296633317724, 5.250000000000000000 ) ) ;
#588 = CARTESIAN_POINT ( 'NONE',  ( 5.050203106331699892E-15, 26.37560046349702247, -5.249999999999999112 ) ) ;
#589 = ORIENTED_EDGE ( 'NONE', *, *, #288, .T. ) ;
#590 = CLOSED_SHELL ( 'NONE', ( #392, #260, #448, #290, #456, #536, #49, #167, #326, #343, #125, #571, #10, #665, #205, #678, #356, #26, #538, #497, #220, #759, #286, #639 ) ) ;
#591 = EDGE_CURVE ( 'NONE', #401, #703, #568, .T. ) ;
#592 = CARTESIAN_POINT ( 'NONE',  ( -16.52495863638344176, 25.63543918223006202, -5.250000000000000000 ) ) ;
#593 = CIRCLE ( 'NONE', #50, 1.499999999999994893 ) ;
#594 = CIRCLE ( 'NONE', #211, 1.200000000000002842 ) ;
#595 = DIRECTION ( 'NONE',  ( -0.5000000000000046629, -0.8660254037844359321, 0.000000000000000000 ) ) ;
#596 = CIRCLE ( 'NONE', #631, 1.200000000000002842 ) ;
#597 = ORIENTED_EDGE ( 'NONE', *, *, #598, .T. ) ;
#598 = EDGE_CURVE ( 'NONE', #221, #85, #732, .T. ) ;
#599 = CARTESIAN_POINT ( 'NONE',  ( 0.000000000000000000, 19.87560046349701892, -5.250000000000000000 ) ) ;
#600 = VERTEX_POINT ( 'NONE', #530 ) ;
#601 = ORIENTED_EDGE ( 'NONE', *, *, #612, .T. ) ;
#602 = DIRECTION ( 'NONE',  ( 0.000000000000000000, 0.000000000000000000, 1.000000000000000000 ) ) ;
#603 = DIRECTION ( 'NONE',  ( 1.000000000000000000, 0.000000000000000000, 0.000000000000000000 ) ) ;
#604 = EDGE_LOOP ( 'NONE', ( #92, #712 ) ) ;
#605 = AXIS2_PLACEMENT_3D ( 'NONE', #169, #685, #691 ) ;
#606 = DIRECTION ( 'NONE',  ( 1.000000000000000000, 0.000000000000000000, 0.000000000000000000 ) ) ;
#607 = VERTEX_POINT ( 'NONE', #758 ) ;
#608 = DIRECTION ( 'NONE',  ( -1.000000000000000000, 0.000000000000000000, -0.000000000000000000 ) ) ;
#609 = ORIENTED_EDGE ( 'NONE', *, *, #70, .F. ) ;
#610 = CARTESIAN_POINT ( 'NONE',  ( -18.96223448575294768, 22.59831107200982458, 4.950000000000008171 ) ) ;
#611 = CARTESIAN_POINT ( 'NONE',  ( -29.32765123257543394, 0.5135045602319091573, -5.250000000000000000 ) ) ;
#612 = EDGE_CURVE ( 'NONE', #51, #369, #285, .T. ) ;
#613 = EDGE_LOOP ( 'NONE', ( #638, #763, #542, #226 ) ) ;
#614 = DIRECTION ( 'NONE',  ( 1.000000000000000000, 0.000000000000000000, 0.000000000000000000 ) ) ;
#615 = EDGE_CURVE ( 'NONE', #281, #459, #452, .T. ) ;
#616 = EDGE_CURVE ( 'NONE', #703, #659, #669, .T. ) ;
#617 = CARTESIAN_POINT ( 'NONE',  ( -26.14774941164088062, 13.71076951545880185, 5.249999999999999112 ) ) ;
#618 = CIRCLE ( 'NONE', #284, 16.00000000000000000 ) ;
#619 = DIRECTION ( 'NONE',  ( 0.000000000000000000, -0.000000000000000000, -1.000000000000000000 ) ) ;
#620 = AXIS2_PLACEMENT_3D ( 'NONE', #540, #725, #247 ) ;
#621 = ORIENTED_EDGE ( 'NONE', *, *, #95, .T. ) ;
#622 = DIRECTION ( 'NONE',  ( -0.000000000000000000, -0.000000000000000000, -1.000000000000000000 ) ) ;
#623 = CARTESIAN_POINT ( 'NONE',  ( -15.02495863638344176, 25.63543918223006202, 5.250000000000000000 ) ) ;
#624 = VERTEX_POINT ( 'NONE', #580 ) ;
#625 = CARTESIAN_POINT ( 'NONE',  ( -15.10853361040772214, 25.14173872062437098, 5.250000000000000000 ) ) ;
#626 = DIRECTION ( 'NONE',  ( 0.000000000000000000, -0.000000000000000000, -1.000000000000000000 ) ) ;
#627 = DIRECTION ( 'NONE',  ( -0.000000000000000000, -0.000000000000000000, -1.000000000000000000 ) ) ;
#628 = ORIENTED_EDGE ( 'NONE', *, *, #696, .F. ) ;
#629 = LINE ( 'NONE', #436, #151 ) ;
#630 = CARTESIAN_POINT ( 'NONE',  ( -16.52495863638344176, 25.63543918223006202, 5.250000000000000000 ) ) ;
#631 = AXIS2_PLACEMENT_3D ( 'NONE', #462, #711, #706 ) ;
#632 = CONICAL_SURFACE ( 'NONE', #113, 3.000000000000000000, 0.7853981633974492782 ) ;
#633 = ORIENTED_EDGE ( 'NONE', *, *, #430, .T. ) ;
#634 = VECTOR ( 'NONE', #383, 999.9999999999998863 ) ;
#635 = AXIS2_PLACEMENT_3D ( 'NONE', #664, #31, #267 ) ;
#636 = DIRECTION ( 'NONE',  ( 0.000000000000000000, 0.000000000000000000, -1.000000000000000000 ) ) ;
#637 = ORIENTED_EDGE ( 'NONE', *, *, #478, .F. ) ;
#638 = ORIENTED_EDGE ( 'NONE', *, *, #128, .F. ) ;
#639 = ADVANCED_FACE ( 'NONE', ( #575 ), #640, .F. ) ;
#640 = CYLINDRICAL_SURFACE ( 'NONE', #722, 15.00000000000000000 ) ;
#641 = DIRECTION ( 'NONE',  ( 0.000000000000000000, 0.000000000000000000, 1.000000000000000000 ) ) ;
#642 = ORIENTED_EDGE ( 'NONE', *, *, #557, .F. ) ;
#643 = CIRCLE ( 'NONE', #707, 16.00000000000000000 ) ;
#644 = CIRCLE ( 'NONE', #311, 1.200000000000002842 ) ;
#645 = DIRECTION ( 'NONE',  ( -0.000000000000000000, -0.000000000000000000, -1.000000000000000000 ) ) ;
#646 = DIRECTION ( 'NONE',  ( 0.5000000000000044409, 0.8660254037844361541, 0.000000000000000000 ) ) ;
#647 = ORIENTED_EDGE ( 'NONE', *, *, #66, .F. ) ;
#648 = CARTESIAN_POINT ( 'NONE',  ( -29.05182871386008259, 5.122621241174761586, -5.249999999999999112 ) ) ;
#649 = CARTESIAN_POINT ( 'NONE',  ( -29.65182871386009111, 4.083390756633437313, -5.249999999999999112 ) ) ;
#650 = DIRECTION ( 'NONE',  ( -0.000000000000000000, -0.000000000000000000, -1.000000000000000000 ) ) ;
#651 = FACE_OUTER_BOUND ( 'NONE', #294, .T. ) ;
#652 = PRODUCT_DEFINITION_SHAPE ( 'NONE', 'NONE',  #583 ) ;
#653 = VERTEX_POINT ( 'NONE', #111 ) ;
#654 = EDGE_CURVE ( 'NONE', #385, #106, #553, .T. ) ;
#655 = CIRCLE ( 'NONE', #733, 1.500000000000001332 ) ;
#656 = AXIS2_PLACEMENT_3D ( 'NONE', #315, #366, #663 ) ;
#657 = AXIS2_PLACEMENT_3D ( 'NONE', #464, #174, #709 ) ;
#658 = DIRECTION ( 'NONE',  ( -0.5000000000000051070, -0.8660254037844358210, 0.000000000000000000 ) ) ;
#659 = VERTEX_POINT ( 'NONE', #587 ) ;
#660 = CARTESIAN_POINT ( 'NONE',  ( -28.45182871386007761, 6.161851725716085859, 6.750000000000000888 ) ) ;
#661 = EDGE_LOOP ( 'NONE', ( #35, #159 ) ) ;
#662 = ORIENTED_EDGE ( 'NONE', *, *, #204, .T. ) ;
#663 = DIRECTION ( 'NONE',  ( 1.000000000000000000, 0.000000000000000000, 0.000000000000000000 ) ) ;
#664 = CARTESIAN_POINT ( 'NONE',  ( 0.000000000000000000, 19.87560046349701892, 5.250000000000000000 ) ) ;
#665 = ADVANCED_FACE ( 'NONE', ( #52 ), #295, .T. ) ;
#666 = EDGE_LOOP ( 'NONE', ( #563, #411, #155, #229 ) ) ;
#667 = AXIS2_PLACEMENT_3D ( 'NONE', #405, #650, #121 ) ;
#668 = AXIS2_PLACEMENT_3D ( 'NONE', #135, #602, #73 ) ;
#669 = CIRCLE ( 'NONE', #390, 1.499999999999995559 ) ;
#670 = ORIENTED_EDGE ( 'NONE', *, *, #598, .F. ) ;
#671 = CARTESIAN_POINT ( 'NONE',  ( -16.52495863638344176, 25.63543918223006202, 5.250000000000000000 ) ) ;
#672 = EDGE_CURVE ( 'NONE', #210, #560, #222, .T. ) ;
#673 = EDGE_CURVE ( 'NONE', #498, #338, #291, .T. ) ;
#674 = ORIENTED_EDGE ( 'NONE', *, *, #699, .F. ) ;
#675 = EDGE_CURVE ( 'NONE', #85, #221, #224, .T. ) ;
#676 = CYLINDRICAL_SURFACE ( 'NONE', #164, 1.200000000000002842 ) ;
#677 = ORIENTED_EDGE ( 'NONE', *, *, #478, .T. ) ;
#678 = ADVANCED_FACE ( 'NONE', ( #240 ), #283, .T. ) ;
#679 = CARTESIAN_POINT ( 'NONE',  ( 0.000000000000000000, 0.000000000000000000, 5.250000000000000000 ) ) ;
#680 = CIRCLE ( 'NONE', #668, 1.200000000000002176 ) ;
#681 = DIRECTION ( 'NONE',  ( 1.000000000000000000, 0.000000000000000000, 0.000000000000000000 ) ) ;
#682 = AXIS2_PLACEMENT_3D ( 'NONE', #511, #754, #443 ) ;
#683 = ORIENTED_EDGE ( 'NONE', *, *, #184, .T. ) ;
#684 = CARTESIAN_POINT ( 'NONE',  ( 5.050203106331699892E-15, 26.37560046349702247, 5.250000000000000000 ) ) ;
#685 = DIRECTION ( 'NONE',  ( 0.000000000000000000, -0.000000000000000000, -1.000000000000000000 ) ) ;
#686 = VERTEX_POINT ( 'NONE', #3 ) ;
#687 = LINE ( 'NONE', #684, #451 ) ;
#688 = FACE_OUTER_BOUND ( 'NONE', #756, .T. ) ;
#689 = ORIENTED_EDGE ( 'NONE', *, *, #207, .F. ) ;
#690 = DIRECTION ( 'NONE',  ( 0.000000000000000000, 0.000000000000000000, -1.000000000000000000 ) ) ;
#691 = DIRECTION ( 'NONE',  ( 0.5000000000000044409, 0.8660254037844361541, 0.000000000000000000 ) ) ;
#692 = VECTOR ( 'NONE', #195, 1000.000000000000000 ) ;
#693 = ORIENTED_EDGE ( 'NONE', *, *, #95, .F. ) ;
#694 = VECTOR ( 'NONE', #701, 1000.000000000000000 ) ;
#695 = DIRECTION ( 'NONE',  ( 0.000000000000000000, 0.000000000000000000, 1.000000000000000000 ) ) ;
#696 = EDGE_CURVE ( 'NONE', #498, #143, #594, .T. ) ;
#697 = DIRECTION ( 'NONE',  ( 1.000000000000000000, 0.000000000000000000, 0.000000000000000000 ) ) ;
#698 = ORIENTED_EDGE ( 'NONE', *, *, #696, .T. ) ;
#699 = EDGE_CURVE ( 'NONE', #653, #75, #457, .T. ) ;
#700 = EDGE_CURVE ( 'NONE', #80, #455, #403, .T. ) ;
#701 = DIRECTION ( 'NONE',  ( -0.3535533905932770060, -0.6123724356957935822, 0.7071067811865467956 ) ) ;
#702 = DIRECTION ( 'NONE',  ( 1.000000000000000000, 0.000000000000000000, -0.000000000000000000 ) ) ;
#703 = VERTEX_POINT ( 'NONE', #116 ) ;
#704 = CARTESIAN_POINT ( 'NONE',  ( -16.00000000000000000, 19.87560046349701892, 5.250000000000000000 ) ) ;
#705 = CARTESIAN_POINT ( 'NONE',  ( -11.87989728545210966, 9.157949578759842169, 5.250000000000000888 ) ) ;
#706 = DIRECTION ( 'NONE',  ( -0.5000000000000044409, -0.8660254037844361541, 0.000000000000000000 ) ) ;
#707 = AXIS2_PLACEMENT_3D ( 'NONE', #296, #461, #109 ) ;
#708 = VECTOR ( 'NONE', #645, 1000.000000000000000 ) ;
#709 = DIRECTION ( 'NONE',  ( -0.5000000000000051070, -0.8660254037844358210, 0.000000000000000000 ) ) ;
#710 = DIRECTION ( 'NONE',  ( -0.5000000000000041078, -0.8660254037844362651, 0.000000000000000000 ) ) ;
#711 = DIRECTION ( 'NONE',  ( 0.000000000000000000, 0.000000000000000000, 1.000000000000000000 ) ) ;
#712 = ORIENTED_EDGE ( 'NONE', *, *, #193, .T. ) ;
#713 = PRODUCT ( '3x_carrier_spacer', '3x_carrier_spacer', '', ( #148 ) ) ;
#714 = DIRECTION ( 'NONE',  ( -1.000000000000000000, 0.000000000000000000, 0.000000000000000000 ) ) ;
#715 = CARTESIAN_POINT ( 'NONE',  ( -25.54774941164087210, 14.75000000000012434, -4.800000000000008704 ) ) ;
#716 = EDGE_CURVE ( 'NONE', #401, #338, #644, .T. ) ;
#717 = ORIENTED_EDGE ( 'NONE', *, *, #761, .T. ) ;
#718 = DIRECTION ( 'NONE',  ( 0.000000000000000000, 0.000000000000000000, -1.000000000000000000 ) ) ;
#719 = CARTESIAN_POINT ( 'NONE',  ( -31.90184760431295885, 2.504419978995468643, 5.250000000000000000 ) ) ;
#720 = VERTEX_POINT ( 'NONE', #412 ) ;
#721 = AXIS2_PLACEMENT_3D ( 'NONE', #523, #407, #4 ) ;
#722 = AXIS2_PLACEMENT_3D ( 'NONE', #357, #518, #171 ) ;
#723 = CIRCLE ( 'NONE', #682, 1.200000000000002842 ) ;
#724 = SURFACE_STYLE_USAGE ( .BOTH. , #736 ) ;
#725 = DIRECTION ( 'NONE',  ( 0.000000000000000000, 0.000000000000000000, 1.000000000000000000 ) ) ;
#726 = CARTESIAN_POINT ( 'NONE',  ( -16.00000000000000000, 19.87560046349701892, 5.250000000000000000 ) ) ;
#727 = ORIENTED_EDGE ( 'NONE', *, *, #559, .F. ) ;
#728 = CARTESIAN_POINT ( 'NONE',  ( -18.96223448575294768, 22.59831107200982458, 5.250000000000000000 ) ) ;
#729 = ORIENTED_EDGE ( 'NONE', *, *, #417, .T. ) ;
#730 = AXIS2_PLACEMENT_3D ( 'NONE', #440, #388, #97 ) ;
#731 =( NAMED_UNIT ( * ) PLANE_ANGLE_UNIT ( ) SI_UNIT ( $, .RADIAN. ) );
#732 = CIRCLE ( 'NONE', #261, 1.200000000000001288 ) ;
#733 = AXIS2_PLACEMENT_3D ( 'NONE', #359, #773, #237 ) ;
#734 = ORIENTED_EDGE ( 'NONE', *, *, #107, .T. ) ;
#735 =( LENGTH_UNIT ( ) NAMED_UNIT ( * ) SI_UNIT ( .MILLI., .METRE. ) );
#736 = SURFACE_SIDE_STYLE ('',( #313 ) ) ;
#737 = DIRECTION ( 'NONE',  ( -0.3535533905932770060, -0.6123724356957935822, 0.7071067811865467956 ) ) ;
#738 = EDGE_CURVE ( 'NONE', #106, #131, #360, .T. ) ;
#739 = ORIENTED_EDGE ( 'NONE', *, *, #395, .T. ) ;
#740 = DIRECTION ( 'NONE',  ( 0.000000000000000000, 0.000000000000000000, 1.000000000000000000 ) ) ;
#741 = CARTESIAN_POINT ( 'NONE',  ( -18.96223448575294768, 22.59831107200982458, 6.750000000000000888 ) ) ;
#742 = CARTESIAN_POINT ( 'NONE',  ( -28.45182871386007761, 6.161851725716084971, -5.249999999999999112 ) ) ;
#743 = ORIENTED_EDGE ( 'NONE', *, *, #616, .T. ) ;
#744 = CARTESIAN_POINT ( 'NONE',  ( -29.05182871386008259, 5.122621241174761586, 6.750000000000002665 ) ) ;
#745 = CARTESIAN_POINT ( 'NONE',  ( -31.90184760431295885, 2.504419978995468643, 6.750000000000000888 ) ) ;
#746 = COLOUR_RGB ( '',0.4980392156862745168, 0.4980392156862745168, 0.4980392156862745168 ) ;
#747 = DIRECTION ( 'NONE',  ( -0.000000000000000000, -0.000000000000000000, -1.000000000000000000 ) ) ;
#748 = VECTOR ( 'NONE', #381, 1000.000000000000000 ) ;
#749 = ORIENTED_EDGE ( 'NONE', *, *, #319, .T. ) ;
#750 = APPLICATION_CONTEXT ( 'automotive_design' ) ;
#751 = CARTESIAN_POINT ( 'NONE',  ( -19.56223448575295265, 21.55908058746850031, -5.249999999999999112 ) ) ;
#752 = CARTESIAN_POINT ( 'NONE',  ( -15.10853361040772036, 25.14173872062437098, -5.250000000000000000 ) ) ;
#753 = VERTEX_POINT ( 'NONE', #491 ) ;
#754 = DIRECTION ( 'NONE',  ( 0.000000000000000000, -0.000000000000000000, -1.000000000000000000 ) ) ;
#755 = DIRECTION ( 'NONE',  ( -0.5000000000000033307, -0.8660254037844368202, 0.000000000000000000 ) ) ;
#756 = EDGE_LOOP ( 'NONE', ( #510, #268, #312, #162 ) ) ;
#757 = EDGE_CURVE ( 'NONE', #369, #686, #33, .T. ) ;
#758 = CARTESIAN_POINT ( 'NONE',  ( -24.94774941164086712, 15.78923048454145039, -4.800000000000008704 ) ) ;
#759 = ADVANCED_FACE ( 'NONE', ( #9 ), #324, .F. ) ;
#760 = AXIS2_PLACEMENT_3D ( 'NONE', #378, #619, #74 ) ;
#761 = EDGE_CURVE ( 'NONE', #607, #250, #382, .T. ) ;
#762 = PRESENTATION_LAYER_ASSIGNMENT (  '', '', ( #501 ) ) ;
#763 = ORIENTED_EDGE ( 'NONE', *, *, #13, .F. ) ;
#764 = AXIS2_PLACEMENT_3D ( 'NONE', #744, #318, #243 ) ;
#765 = DIRECTION ( 'NONE',  ( 0.3535533905932770615, 0.6123724356957934711, 0.7071067811865466846 ) ) ;
#766 = VERTEX_POINT ( 'NONE', #435 ) ;
#767 = CARTESIAN_POINT ( 'NONE',  ( 0.000000000000000000, 0.000000000000000000, 5.250000000000000000 ) ) ;
#768 = DIRECTION ( 'NONE',  ( -0.5000000000000038858, -0.8660254037844362651, 0.000000000000000000 ) ) ;
#769 = DIRECTION ( 'NONE',  ( 0.000000000000000000, 0.000000000000000000, -1.000000000000000000 ) ) ;
#770 = EDGE_LOOP ( 'NONE', ( #264, #628, #539, #399 ) ) ;
#771 = CARTESIAN_POINT ( 'NONE',  ( -22.84194004145702905, -13.18780023174851301, 6.750000000000000888 ) ) ;
#772 = CARTESIAN_POINT ( 'NONE',  ( -19.56223448575295265, 21.55908058746850031, 4.950000000000008171 ) ) ;
#773 = DIRECTION ( 'NONE',  ( 0.000000000000000000, 0.000000000000000000, -1.000000000000000000 ) ) ;
ENDSEC;
END-ISO-10303-21;
