ISO-10303-21;
HEADER;
FILE_DESCRIPTION (( 'STEP AP214' ),
    '1' );
FILE_NAME ('6x_planet_pin_spacer.STEP',
    '2025-09-05T22:02:27',
    ( '' ),
    ( '' ),
    'SwSTEP 2.0',
    'SolidWorks 2024',
    '' );
FILE_SCHEMA (( 'AUTOMOTIVE_DESIGN' ));
ENDSEC;

DATA;
#1 = CYLINDRICAL_SURFACE ( 'NONE', #78, 2.500000000000002220 ) ;
#2 = PRODUCT_CONTEXT ( 'NONE', #192, 'mechanical' ) ;
#3 = EDGE_LOOP ( 'NONE', ( #175, #111, #87, #169 ) ) ;
#4 = ORIENTED_EDGE ( 'NONE', *, *, #190, .F. ) ;
#5 = ORIENTED_EDGE ( 'NONE', *, *, #122, .F. ) ;
#6 = VERTEX_POINT ( 'NONE', #83 ) ;
#7 =( GEOMETRIC_REPRESENTATION_CONTEXT ( 3 ) GLOBAL_UNCERTAINTY_ASSIGNED_CONTEXT ( ( #191 ) ) GLOBAL_UNIT_ASSIGNED_CONTEXT ( ( #164, #79, #66 ) ) REPRESENTATION_CONTEXT ( 'NONE', 'WORKASPACE' ) );
#8 = ORIENTED_EDGE ( 'NONE', *, *, #100, .T. ) ;
#9 = DIRECTION ( 'NONE',  ( -0.000000000000000000, -0.000000000000000000, -1.000000000000000000 ) ) ;
#10 = DIRECTION ( 'NONE',  ( -0.000000000000000000, -0.000000000000000000, -1.000000000000000000 ) ) ;
#11 = FACE_BOUND ( 'NONE', #101, .T. ) ;
#12 = CARTESIAN_POINT ( 'NONE',  ( -17.21277491685818717, -9.937800231748504132, -5.250000000000000000 ) ) ;
#13 = DIRECTION ( 'NONE',  ( -0.000000000000000000, -0.000000000000000000, -1.000000000000000000 ) ) ;
#14 = ADVANCED_BREP_SHAPE_REPRESENTATION ( '6x_planet_pin_spacer', ( #68, #168 ), #145 ) ;
#15 = FACE_OUTER_BOUND ( 'NONE', #3, .T. ) ;
#16 = CARTESIAN_POINT ( 'NONE',  ( -12.21277491685818539, -9.937800231748504132, -5.250000000000000000 ) ) ;
#17 = CIRCLE ( 'NONE', #35, 2.500000000000000444 ) ;
#18 = FACE_BOUND ( 'NONE', #104, .T. ) ;
#19 = ORIENTED_EDGE ( 'NONE', *, *, #152, .F. ) ;
#20 = ORIENTED_EDGE ( 'NONE', *, *, #96, .T. ) ;
#21 = VERTEX_POINT ( 'NONE', #172 ) ;
#22 = AXIS2_PLACEMENT_3D ( 'NONE', #94, #123, #193 ) ;
#23 = PLANE ( 'NONE',  #22 ) ;
#24 = DIRECTION ( 'NONE',  ( 0.000000000000000000, 0.000000000000000000, 1.000000000000000000 ) ) ;
#25 = DIRECTION ( 'NONE',  ( 1.000000000000000000, 0.000000000000000000, 0.000000000000000000 ) ) ;
#26 = EDGE_CURVE ( 'NONE', #6, #157, #84, .T. ) ;
#27 = VECTOR ( 'NONE', #9, 1000.000000000000000 ) ;
#28 = FACE_OUTER_BOUND ( 'NONE', #156, .T. ) ;
#29 = FILL_AREA_STYLE ('',( #131 ) ) ;
#30 = CIRCLE ( 'NONE', #97, 2.500000000000000444 ) ;
#31 = DIRECTION ( 'NONE',  ( 1.000000000000000000, 0.000000000000000000, 0.000000000000000000 ) ) ;
#32 =( LENGTH_UNIT ( ) NAMED_UNIT ( * ) SI_UNIT ( .MILLI., .METRE. ) );
#33 = ADVANCED_FACE ( 'NONE', ( #136, #18 ), #182, .F. ) ;
#34 = VERTEX_POINT ( 'NONE', #71 ) ;
#35 = AXIS2_PLACEMENT_3D ( 'NONE', #124, #95, #76 ) ;
#36 = ORIENTED_EDGE ( 'NONE', *, *, #132, .T. ) ;
#37 = ORIENTED_EDGE ( 'NONE', *, *, #60, .F. ) ;
#38 = DIRECTION ( 'NONE',  ( -0.000000000000000000, -0.000000000000000000, -1.000000000000000000 ) ) ;
#39 = CARTESIAN_POINT ( 'NONE',  ( -17.21277491685818717, -9.937800231748504132, -5.000000000000000000 ) ) ;
#40 = CARTESIAN_POINT ( 'NONE',  ( -17.21277491685818717, -9.937800231748504132, -5.000000000000000000 ) ) ;
#41 = LINE ( 'NONE', #53, #27 ) ;
#42 = AXIS2_PLACEMENT_3D ( 'NONE', #161, #24, #25 ) ;
#43 = ADVANCED_FACE ( 'NONE', ( #62 ), #155, .T. ) ;
#44 =( NAMED_UNIT ( * ) SI_UNIT ( $, .STERADIAN. ) SOLID_ANGLE_UNIT ( ) );
#45 = DIRECTION ( 'NONE',  ( 0.000000000000000000, 0.000000000000000000, 1.000000000000000000 ) ) ;
#46 = EDGE_LOOP ( 'NONE', ( #37, #196, #187, #115 ) ) ;
#47 = PRESENTATION_LAYER_ASSIGNMENT (  '', '', ( #57 ) ) ;
#48 = DIRECTION ( 'NONE',  ( 1.000000000000000000, 0.000000000000000000, 0.000000000000000000 ) ) ;
#49 = DIRECTION ( 'NONE',  ( -0.000000000000000000, -0.000000000000000000, -1.000000000000000000 ) ) ;
#50 = VERTEX_POINT ( 'NONE', #121 ) ;
#51 = COLOUR_RGB ( '',0.4980392156862745168, 0.4980392156862745168, 0.4980392156862745168 ) ;
#52 = DIRECTION ( 'NONE',  ( 0.000000000000000000, 0.000000000000000000, 1.000000000000000000 ) ) ;
#53 = CARTESIAN_POINT ( 'NONE',  ( -12.21277491685818539, -9.937800231748504132, -5.000000000000000000 ) ) ;
#54 = DIRECTION ( 'NONE',  ( 0.000000000000000000, 0.000000000000000000, 1.000000000000000000 ) ) ;
#55 = AXIS2_PLACEMENT_3D ( 'NONE', #186, #45, #85 ) ;
#56 = AXIS2_PLACEMENT_3D ( 'NONE', #40, #54, #110 ) ;
#57 = STYLED_ITEM ( 'NONE', ( #143 ), #68 ) ;
#58 = VERTEX_POINT ( 'NONE', #151 ) ;
#59 = ORIENTED_EDGE ( 'NONE', *, *, #96, .F. ) ;
#60 = EDGE_CURVE ( 'NONE', #157, #58, #134, .T. ) ;
#61 = VERTEX_POINT ( 'NONE', #16 ) ;
#62 = FACE_OUTER_BOUND ( 'NONE', #183, .T. ) ;
#63 = DIRECTION ( 'NONE',  ( 1.000000000000000000, 0.000000000000000000, 0.000000000000000000 ) ) ;
#64 = DIRECTION ( 'NONE',  ( -0.000000000000000000, -0.000000000000000000, -1.000000000000000000 ) ) ;
#65 = CARTESIAN_POINT ( 'NONE',  ( -19.71277491685818717, -9.937800231748504132, -5.000000000000000000 ) ) ;
#66 =( NAMED_UNIT ( * ) SI_UNIT ( $, .STERADIAN. ) SOLID_ANGLE_UNIT ( ) );
#67 = DIRECTION ( 'NONE',  ( -1.000000000000000000, 0.000000000000000000, 0.000000000000000000 ) ) ;
#68 = MANIFOLD_SOLID_BREP ( 'CirPattern9[2]', #98 ) ;
#69 = APPLICATION_PROTOCOL_DEFINITION ( 'draft international standard', 'automotive_design', 1998, #192 ) ;
#70 = FACE_OUTER_BOUND ( 'NONE', #86, .T. ) ;
#71 = CARTESIAN_POINT ( 'NONE',  ( -22.21277491685818717, -9.937800231748504132, -5.250000000000000000 ) ) ;
#72 = EDGE_LOOP ( 'NONE', ( #19, #153 ) ) ;
#73 = ORIENTED_EDGE ( 'NONE', *, *, #26, .F. ) ;
#74 = ORIENTED_EDGE ( 'NONE', *, *, #140, .T. ) ;
#75 = CARTESIAN_POINT ( 'NONE',  ( -22.21277491685818717, -9.937800231748504132, -5.000000000000000000 ) ) ;
#76 = DIRECTION ( 'NONE',  ( 1.000000000000000000, 0.000000000000000000, 0.000000000000000000 ) ) ;
#77 = CARTESIAN_POINT ( 'NONE',  ( -14.71277491685818539, -9.937800231748504132, -5.000000000000000000 ) ) ;
#78 = AXIS2_PLACEMENT_3D ( 'NONE', #112, #128, #67 ) ;
#79 =( NAMED_UNIT ( * ) PLANE_ANGLE_UNIT ( ) SI_UNIT ( $, .RADIAN. ) );
#80 = AXIS2_PLACEMENT_3D ( 'NONE', #39, #64, #139 ) ;
#81 = VECTOR ( 'NONE', #38, 1000.000000000000000 ) ;
#82 = VERTEX_POINT ( 'NONE', #162 ) ;
#83 = CARTESIAN_POINT ( 'NONE',  ( -19.71277491685818717, -9.937800231748504132, -5.000000000000000000 ) ) ;
#84 = CIRCLE ( 'NONE', #158, 2.500000000000000444 ) ;
#85 = DIRECTION ( 'NONE',  ( 1.000000000000000000, 0.000000000000000000, -0.000000000000000000 ) ) ;
#86 = EDGE_LOOP ( 'NONE', ( #20, #74 ) ) ;
#87 = ORIENTED_EDGE ( 'NONE', *, *, #100, .F. ) ;
#88 = AXIS2_PLACEMENT_3D ( 'NONE', #165, #13, #160 ) ;
#89 = LINE ( 'NONE', #75, #129 ) ;
#90 = ADVANCED_FACE ( 'NONE', ( #70, #11 ), #23, .T. ) ;
#91 = DIRECTION ( 'NONE',  ( 0.000000000000000000, 0.000000000000000000, 1.000000000000000000 ) ) ;
#92 = APPLICATION_CONTEXT ( 'automotive_design' ) ;
#93 = DIRECTION ( 'NONE',  ( 1.000000000000000000, 0.000000000000000000, 0.000000000000000000 ) ) ;
#94 = CARTESIAN_POINT ( 'NONE',  ( -17.21277491685818717, -9.937800231748504132, -5.000000000000000000 ) ) ;
#95 = DIRECTION ( 'NONE',  ( 0.000000000000000000, 0.000000000000000000, 1.000000000000000000 ) ) ;
#96 = EDGE_CURVE ( 'NONE', #21, #50, #109, .T. ) ;
#97 = AXIS2_PLACEMENT_3D ( 'NONE', #12, #195, #63 ) ;
#98 = CLOSED_SHELL ( 'NONE', ( #197, #43, #90, #33, #184, #173 ) ) ;
#99 = ORIENTED_EDGE ( 'NONE', *, *, #122, .T. ) ;
#100 = EDGE_CURVE ( 'NONE', #82, #58, #30, .T. ) ;
#101 = EDGE_LOOP ( 'NONE', ( #73, #102 ) ) ;
#102 = ORIENTED_EDGE ( 'NONE', *, *, #181, .F. ) ;
#103 = DIRECTION ( 'NONE',  ( -1.000000000000000000, 0.000000000000000000, 0.000000000000000000 ) ) ;
#104 = EDGE_LOOP ( 'NONE', ( #8, #137 ) ) ;
#105 = SURFACE_STYLE_FILL_AREA ( #29 ) ;
#106 = DIRECTION ( 'NONE',  ( 1.000000000000000000, 0.000000000000000000, 0.000000000000000000 ) ) ;
#107 = CARTESIAN_POINT ( 'NONE',  ( -17.21277491685818717, -9.937800231748504132, -5.250000000000000000 ) ) ;
#108 = CYLINDRICAL_SURFACE ( 'NONE', #88, 5.000000000000000888 ) ;
#109 = CIRCLE ( 'NONE', #171, 5.000000000000000888 ) ;
#110 = DIRECTION ( 'NONE',  ( 1.000000000000000000, 0.000000000000000000, 0.000000000000000000 ) ) ;
#111 = ORIENTED_EDGE ( 'NONE', *, *, #60, .T. ) ;
#112 = CARTESIAN_POINT ( 'NONE',  ( -17.21277491685818717, -9.937800231748504132, -5.000000000000000000 ) ) ;
#113 = CIRCLE ( 'NONE', #159, 5.000000000000000888 ) ;
#114 = PRODUCT_DEFINITION_CONTEXT ( 'detailed design', #92, 'design' ) ;
#115 = ORIENTED_EDGE ( 'NONE', *, *, #146, .F. ) ;
#116 = PRODUCT_DEFINITION ( 'UNKNOWN', '', #199, #114 ) ;
#117 = ORIENTED_EDGE ( 'NONE', *, *, #152, .T. ) ;
#118 = CARTESIAN_POINT ( 'NONE',  ( -17.21277491685818717, -9.937800231748504132, -5.000000000000000000 ) ) ;
#119 = AXIS2_PLACEMENT_3D ( 'NONE', #118, #49, #103 ) ;
#120 = DIRECTION ( 'NONE',  ( 0.000000000000000000, 0.000000000000000000, 1.000000000000000000 ) ) ;
#121 = CARTESIAN_POINT ( 'NONE',  ( -12.21277491685818539, -9.937800231748504132, -5.000000000000000000 ) ) ;
#122 = EDGE_CURVE ( 'NONE', #50, #61, #41, .T. ) ;
#123 = DIRECTION ( 'NONE',  ( 0.000000000000000000, 0.000000000000000000, 1.000000000000000000 ) ) ;
#124 = CARTESIAN_POINT ( 'NONE',  ( -17.21277491685818717, -9.937800231748504132, -5.000000000000000000 ) ) ;
#125 = UNCERTAINTY_MEASURE_WITH_UNIT (LENGTH_MEASURE( 1.000000000000000082E-05 ), #32, 'distance_accuracy_value', 'NONE');
#126 = PRODUCT ( '6x_planet_pin_spacer', '6x_planet_pin_spacer', '', ( #2 ) ) ;
#127 = SURFACE_STYLE_USAGE ( .BOTH. , #180 ) ;
#128 = DIRECTION ( 'NONE',  ( -0.000000000000000000, -0.000000000000000000, -1.000000000000000000 ) ) ;
#129 = VECTOR ( 'NONE', #138, 1000.000000000000000 ) ;
#130 = PRODUCT_RELATED_PRODUCT_CATEGORY ( 'part', '', ( #126 ) ) ;
#131 = FILL_AREA_STYLE_COLOUR ( '', #51 ) ;
#132 = EDGE_CURVE ( 'NONE', #61, #34, #113, .T. ) ;
#133 = AXIS2_PLACEMENT_3D ( 'NONE', #177, #91, #178 ) ;
#134 = LINE ( 'NONE', #174, #81 ) ;
#135 = ORIENTED_EDGE ( 'NONE', *, *, #190, .T. ) ;
#136 = FACE_OUTER_BOUND ( 'NONE', #72, .T. ) ;
#137 = ORIENTED_EDGE ( 'NONE', *, *, #146, .T. ) ;
#138 = DIRECTION ( 'NONE',  ( -0.000000000000000000, -0.000000000000000000, -1.000000000000000000 ) ) ;
#139 = DIRECTION ( 'NONE',  ( -1.000000000000000000, 0.000000000000000000, 0.000000000000000000 ) ) ;
#140 = EDGE_CURVE ( 'NONE', #50, #21, #163, .T. ) ;
#141 = PRODUCT_DEFINITION_SHAPE ( 'NONE', 'NONE',  #116 ) ;
#142 = FACE_OUTER_BOUND ( 'NONE', #46, .T. ) ;
#143 = PRESENTATION_STYLE_ASSIGNMENT (( #127 ) ) ;
#144 = LINE ( 'NONE', #65, #189 ) ;
#145 =( GEOMETRIC_REPRESENTATION_CONTEXT ( 3 ) GLOBAL_UNCERTAINTY_ASSIGNED_CONTEXT ( ( #125 ) ) GLOBAL_UNIT_ASSIGNED_CONTEXT ( ( #32, #150, #44 ) ) REPRESENTATION_CONTEXT ( 'NONE', 'WORKASPACE' ) );
#146 = EDGE_CURVE ( 'NONE', #58, #82, #154, .T. ) ;
#147 = EDGE_CURVE ( 'NONE', #6, #82, #144, .T. ) ;
#148 = SHAPE_DEFINITION_REPRESENTATION ( #141, #14 ) ;
#149 = CIRCLE ( 'NONE', #42, 5.000000000000000888 ) ;
#150 =( NAMED_UNIT ( * ) PLANE_ANGLE_UNIT ( ) SI_UNIT ( $, .RADIAN. ) );
#151 = CARTESIAN_POINT ( 'NONE',  ( -14.71277491685818539, -9.937800231748504132, -5.250000000000000000 ) ) ;
#152 = EDGE_CURVE ( 'NONE', #34, #61, #149, .T. ) ;
#153 = ORIENTED_EDGE ( 'NONE', *, *, #132, .F. ) ;
#154 = CIRCLE ( 'NONE', #133, 2.500000000000000444 ) ;
#155 = CYLINDRICAL_SURFACE ( 'NONE', #119, 5.000000000000000888 ) ;
#156 = EDGE_LOOP ( 'NONE', ( #5, #59, #135, #117 ) ) ;
#157 = VERTEX_POINT ( 'NONE', #77 ) ;
#158 = AXIS2_PLACEMENT_3D ( 'NONE', #185, #120, #48 ) ;
#159 = AXIS2_PLACEMENT_3D ( 'NONE', #107, #52, #106 ) ;
#160 = DIRECTION ( 'NONE',  ( -1.000000000000000000, 0.000000000000000000, 0.000000000000000000 ) ) ;
#161 = CARTESIAN_POINT ( 'NONE',  ( -17.21277491685818717, -9.937800231748504132, -5.250000000000000000 ) ) ;
#162 = CARTESIAN_POINT ( 'NONE',  ( -19.71277491685818717, -9.937800231748504132, -5.250000000000000000 ) ) ;
#163 = CIRCLE ( 'NONE', #56, 5.000000000000000888 ) ;
#164 =( LENGTH_UNIT ( ) NAMED_UNIT ( * ) SI_UNIT ( .MILLI., .METRE. ) );
#165 = CARTESIAN_POINT ( 'NONE',  ( -17.21277491685818717, -9.937800231748504132, -5.000000000000000000 ) ) ;
#166 = APPLICATION_PROTOCOL_DEFINITION ( 'draft international standard', 'automotive_design', 1998, #92 ) ;
#167 = DIRECTION ( 'NONE',  ( 0.000000000000000000, 0.000000000000000000, 1.000000000000000000 ) ) ;
#168 = AXIS2_PLACEMENT_3D ( 'NONE', #198, #167, #31 ) ;
#169 = ORIENTED_EDGE ( 'NONE', *, *, #147, .F. ) ;
#170 = ORIENTED_EDGE ( 'NONE', *, *, #140, .F. ) ;
#171 = AXIS2_PLACEMENT_3D ( 'NONE', #188, #176, #93 ) ;
#172 = CARTESIAN_POINT ( 'NONE',  ( -22.21277491685818717, -9.937800231748504132, -5.000000000000000000 ) ) ;
#173 = ADVANCED_FACE ( 'NONE', ( #142 ), #194, .F. ) ;
#174 = CARTESIAN_POINT ( 'NONE',  ( -14.71277491685818539, -9.937800231748504132, -5.000000000000000000 ) ) ;
#175 = ORIENTED_EDGE ( 'NONE', *, *, #26, .T. ) ;
#176 = DIRECTION ( 'NONE',  ( 0.000000000000000000, 0.000000000000000000, 1.000000000000000000 ) ) ;
#177 = CARTESIAN_POINT ( 'NONE',  ( -17.21277491685818717, -9.937800231748504132, -5.250000000000000000 ) ) ;
#178 = DIRECTION ( 'NONE',  ( 1.000000000000000000, 0.000000000000000000, 0.000000000000000000 ) ) ;
#179 = MECHANICAL_DESIGN_GEOMETRIC_PRESENTATION_REPRESENTATION (  '', ( #57 ), #7 ) ;
#180 = SURFACE_SIDE_STYLE ('',( #105 ) ) ;
#181 = EDGE_CURVE ( 'NONE', #157, #6, #17, .T. ) ;
#182 = PLANE ( 'NONE',  #55 ) ;
#183 = EDGE_LOOP ( 'NONE', ( #170, #99, #36, #4 ) ) ;
#184 = ADVANCED_FACE ( 'NONE', ( #28 ), #108, .T. ) ;
#185 = CARTESIAN_POINT ( 'NONE',  ( -17.21277491685818717, -9.937800231748504132, -5.000000000000000000 ) ) ;
#186 = CARTESIAN_POINT ( 'NONE',  ( -17.21277491685818717, -9.937800231748504132, -5.250000000000000000 ) ) ;
#187 = ORIENTED_EDGE ( 'NONE', *, *, #147, .T. ) ;
#188 = CARTESIAN_POINT ( 'NONE',  ( -17.21277491685818717, -9.937800231748504132, -5.000000000000000000 ) ) ;
#189 = VECTOR ( 'NONE', #10, 1000.000000000000000 ) ;
#190 = EDGE_CURVE ( 'NONE', #21, #34, #89, .T. ) ;
#191 = UNCERTAINTY_MEASURE_WITH_UNIT (LENGTH_MEASURE( 1.000000000000000082E-05 ), #164, 'distance_accuracy_value', 'NONE');
#192 = APPLICATION_CONTEXT ( 'automotive_design' ) ;
#193 = DIRECTION ( 'NONE',  ( 1.000000000000000000, 0.000000000000000000, -0.000000000000000000 ) ) ;
#194 = CYLINDRICAL_SURFACE ( 'NONE', #80, 2.500000000000002220 ) ;
#195 = DIRECTION ( 'NONE',  ( 0.000000000000000000, 0.000000000000000000, 1.000000000000000000 ) ) ;
#196 = ORIENTED_EDGE ( 'NONE', *, *, #181, .T. ) ;
#197 = ADVANCED_FACE ( 'NONE', ( #15 ), #1, .F. ) ;
#198 = CARTESIAN_POINT ( 'NONE',  ( 0.000000000000000000, 0.000000000000000000, 0.000000000000000000 ) ) ;
#199 = PRODUCT_DEFINITION_FORMATION_WITH_SPECIFIED_SOURCE ( 'ANY', '', #126, .NOT_KNOWN. ) ;
ENDSEC;
END-ISO-10303-21;
